<svg width="1920" height="454" viewBox="0 0 1920 454" fill="none" xmlns="http://www.w3.org/2000/svg">
<mask id="path-1-inside-1_425_2215" fill="white">
<path fill-rule="evenodd" clip-rule="evenodd" d="M1585.76 141.727C1575.66 116.785 1551.02 102.126 1527.65 108.387C1512.19 112.53 1500.82 124.886 1495.98 140.494C1485.49 134.868 1472.65 133.097 1459.92 136.51C1453.16 138.32 1447.11 141.408 1441.98 145.418C1435.53 144.51 1428.75 144.861 1421.99 146.671C1398.78 152.891 1383.88 174.193 1386.15 196.175C1385.97 196.22 1385.79 196.266 1385.62 196.313C1360.02 203.172 1344.53 228.374 1351.02 252.602C1351.55 254.559 1352.2 256.45 1352.97 258.269C1342.31 252.017 1329.34 249.862 1316.58 253.282C1290.98 260.141 1275.89 286.83 1282.88 312.894C1284.18 317.769 1286.17 322.277 1288.7 326.34C1288.01 326.496 1287.31 326.666 1286.62 326.853C1261.02 333.712 1245.53 358.913 1252.02 383.142C1255.95 397.787 1267 408.725 1280.79 413.571C1284.46 420.64 1289.97 426.461 1296.6 430.647C1296.14 433.165 1296.2 435.669 1296.85 438.096C1300.79 452.78 1324.73 459.123 1350.33 452.264C1358.68 450.027 1366.17 446.663 1372.34 442.635C1420.25 488.533 1517.33 504.404 1618.94 477.178C1724.81 448.81 1803.03 382.379 1817.26 315.937C1820.87 315.78 1824.53 315.228 1828.19 314.249C1853.78 307.39 1869.27 282.188 1862.78 257.96C1858.37 241.483 1844.92 229.7 1828.72 226.003C1829.24 220.895 1828.86 215.64 1827.46 210.429C1820.97 186.201 1794.96 172.12 1769.36 178.979C1769.11 179.048 1768.85 179.118 1768.6 179.19C1759.17 159.828 1736.12 149.417 1713.39 155.505C1704.99 157.758 1697.67 161.987 1691.87 167.511C1691.65 165.076 1691.22 162.632 1690.56 160.198C1684.07 135.969 1658.06 121.888 1632.46 128.747C1622.52 131.41 1614.11 136.835 1607.92 143.894C1601.02 141.555 1593.45 140.734 1585.76 141.727Z"/>
</mask>
<path fill-rule="evenodd" clip-rule="evenodd" d="M1585.76 141.727C1575.66 116.785 1551.02 102.126 1527.65 108.387C1512.19 112.53 1500.82 124.886 1495.98 140.494C1485.49 134.868 1472.65 133.097 1459.92 136.51C1453.16 138.32 1447.11 141.408 1441.98 145.418C1435.53 144.51 1428.75 144.861 1421.99 146.671C1398.78 152.891 1383.88 174.193 1386.15 196.175C1385.97 196.22 1385.79 196.266 1385.62 196.313C1360.02 203.172 1344.53 228.374 1351.02 252.602C1351.55 254.559 1352.2 256.45 1352.97 258.269C1342.31 252.017 1329.34 249.862 1316.58 253.282C1290.98 260.141 1275.89 286.83 1282.88 312.894C1284.18 317.769 1286.17 322.277 1288.7 326.34C1288.01 326.496 1287.31 326.666 1286.62 326.853C1261.02 333.712 1245.53 358.913 1252.02 383.142C1255.95 397.787 1267 408.725 1280.79 413.571C1284.46 420.64 1289.97 426.461 1296.6 430.647C1296.14 433.165 1296.2 435.669 1296.85 438.096C1300.79 452.78 1324.73 459.123 1350.33 452.264C1358.68 450.027 1366.17 446.663 1372.34 442.635C1420.25 488.533 1517.33 504.404 1618.94 477.178C1724.81 448.81 1803.03 382.379 1817.26 315.937C1820.87 315.78 1824.53 315.228 1828.19 314.249C1853.78 307.39 1869.27 282.188 1862.78 257.96C1858.37 241.483 1844.92 229.7 1828.72 226.003C1829.24 220.895 1828.86 215.64 1827.46 210.429C1820.97 186.201 1794.96 172.12 1769.36 178.979C1769.11 179.048 1768.85 179.118 1768.6 179.19C1759.17 159.828 1736.12 149.417 1713.39 155.505C1704.99 157.758 1697.67 161.987 1691.87 167.511C1691.65 165.076 1691.22 162.632 1690.56 160.198C1684.07 135.969 1658.06 121.888 1632.46 128.747C1622.52 131.41 1614.11 136.835 1607.92 143.894C1601.02 141.555 1593.45 140.734 1585.76 141.727Z" fill="#8F9DD6"/>
<path d="M1585.76 141.727L1582.98 142.853L1583.85 144.999L1586.15 144.702L1585.76 141.727ZM1495.98 140.494L1494.56 143.137L1497.77 144.857L1498.84 141.383L1495.98 140.494ZM1441.98 145.418L1441.56 148.388L1442.82 148.566L1443.83 147.781L1441.98 145.418ZM1386.15 196.175L1386.89 199.08L1389.4 198.438L1389.13 195.867L1386.15 196.175ZM1352.97 258.269L1351.45 260.856L1359.25 265.432L1355.73 257.101L1352.97 258.269ZM1288.7 326.34L1289.36 329.268L1293.49 328.344L1291.25 324.753L1288.7 326.34ZM1280.79 413.571L1283.45 412.189L1282.91 411.135L1281.79 410.741L1280.79 413.571ZM1296.6 430.647L1299.56 431.19L1299.92 429.193L1298.21 428.109L1296.6 430.647ZM1372.34 442.635L1374.42 440.469L1372.7 438.821L1370.7 440.123L1372.34 442.635ZM1817.26 315.937L1817.13 312.94L1814.81 313.041L1814.32 315.309L1817.26 315.937ZM1828.72 226.003L1825.74 225.7L1825.47 228.338L1828.05 228.928L1828.72 226.003ZM1768.6 179.19L1765.9 180.503L1767 182.763L1769.42 182.075L1768.6 179.19ZM1691.87 167.511L1688.88 167.781L1689.44 173.962L1693.94 169.684L1691.87 167.511ZM1607.92 143.894L1606.95 146.736L1608.85 147.379L1610.17 145.873L1607.92 143.894ZM1528.43 111.285C1550.01 105.5 1573.32 118.99 1582.98 142.853L1588.55 140.6C1578 114.58 1552.02 98.7516 1526.87 105.489L1528.43 111.285ZM1498.84 141.383C1503.43 126.598 1514.11 115.12 1528.43 111.285L1526.87 105.489C1510.26 109.94 1498.21 123.175 1493.11 139.605L1498.84 141.383ZM1460.69 139.408C1472.68 136.195 1484.74 137.869 1494.56 143.137L1497.4 137.85C1486.24 131.868 1472.62 130 1459.14 133.612L1460.69 139.408ZM1443.83 147.781C1448.64 144.017 1454.33 141.113 1460.69 139.408L1459.14 133.612C1451.99 135.528 1445.58 138.799 1440.13 143.054L1443.83 147.781ZM1422.77 149.569C1429.13 147.864 1435.51 147.536 1441.56 148.388L1442.4 142.447C1435.56 141.483 1428.37 141.858 1421.22 143.774L1422.77 149.569ZM1389.13 195.867C1387.03 175.447 1400.89 155.433 1422.77 149.569L1421.22 143.774C1396.68 150.349 1380.74 172.938 1383.16 196.482L1389.13 195.867ZM1386.39 199.211C1386.56 199.167 1386.73 199.123 1386.89 199.08L1385.4 193.269C1385.21 193.317 1385.03 193.366 1384.84 193.416L1386.39 199.211ZM1353.92 251.826C1347.9 229.346 1362.24 205.682 1386.39 199.211L1384.84 193.416C1357.8 200.663 1341.16 227.402 1348.13 253.379L1353.92 251.826ZM1355.73 257.101C1355.02 255.409 1354.41 253.649 1353.92 251.826L1348.13 253.379C1348.69 255.469 1349.38 257.491 1350.2 259.436L1355.73 257.101ZM1317.36 256.18C1329.31 252.978 1341.45 254.99 1351.45 260.856L1354.49 255.681C1343.17 249.044 1329.38 246.746 1315.81 250.384L1317.36 256.18ZM1285.77 312.118C1279.21 287.605 1293.41 262.597 1317.36 256.18L1315.81 250.384C1288.56 257.685 1272.58 286.056 1279.98 313.671L1285.77 312.118ZM1291.25 324.753C1288.87 320.939 1287 316.704 1285.77 312.118L1279.98 313.671C1281.36 318.835 1283.47 323.616 1286.16 327.927L1291.25 324.753ZM1287.39 329.75C1288.05 329.575 1288.7 329.414 1289.36 329.268L1288.05 323.412C1287.31 323.577 1286.58 323.758 1285.84 323.955L1287.39 329.75ZM1254.92 382.365C1248.9 359.885 1263.24 336.221 1287.39 329.75L1285.84 323.955C1258.79 331.202 1242.16 357.941 1249.12 383.918L1254.92 382.365ZM1281.79 410.741C1268.85 406.194 1258.57 395.972 1254.92 382.365L1249.12 383.918C1253.33 399.602 1265.16 411.256 1279.8 416.401L1281.79 410.741ZM1298.21 428.109C1291.99 424.193 1286.86 418.762 1283.45 412.189L1278.13 414.952C1282.05 422.518 1287.94 428.729 1295 433.184L1298.21 428.109ZM1299.75 437.319C1299.23 435.355 1299.17 433.305 1299.56 431.19L1293.65 430.104C1293.12 433.026 1293.18 435.982 1293.96 438.872L1299.75 437.319ZM1349.55 449.366C1337.17 452.685 1325.32 452.765 1316.24 450.358C1307.06 447.927 1301.32 443.178 1299.75 437.319L1293.96 438.872C1296.32 447.697 1304.52 453.462 1314.7 456.158C1324.97 458.879 1337.89 458.702 1351.11 455.162L1349.55 449.366ZM1370.7 440.123C1364.81 443.966 1357.61 447.206 1349.55 449.366L1351.11 455.162C1359.74 452.848 1367.53 449.36 1373.98 445.147L1370.7 440.123ZM1618.16 474.28C1517.06 501.371 1421.26 485.339 1374.42 440.469L1370.26 444.802C1419.25 491.728 1517.61 507.436 1619.72 480.076L1618.16 474.28ZM1814.32 315.309C1807.4 347.658 1784.8 380.332 1750.56 408.519C1716.35 436.679 1670.73 460.196 1618.16 474.28L1619.72 480.076C1673.02 465.792 1719.44 441.909 1754.37 413.151C1789.27 384.421 1812.89 350.658 1820.19 316.565L1814.32 315.309ZM1827.41 311.351C1823.97 312.273 1820.52 312.792 1817.13 312.94L1817.39 318.934C1821.22 318.768 1825.1 318.182 1828.96 317.146L1827.41 311.351ZM1859.88 258.736C1865.91 281.216 1851.56 304.88 1827.41 311.351L1828.96 317.146C1856.01 309.899 1872.64 283.16 1865.68 257.183L1859.88 258.736ZM1828.05 228.928C1843.28 232.401 1855.78 243.433 1859.88 258.736L1865.68 257.183C1860.95 239.533 1846.57 226.998 1829.39 223.078L1828.05 228.928ZM1824.57 211.206C1825.87 216.057 1826.22 220.946 1825.74 225.7L1831.71 226.306C1832.26 220.844 1831.85 215.222 1830.36 209.653L1824.57 211.206ZM1770.14 181.877C1794.29 175.406 1818.54 188.726 1824.57 211.206L1830.36 209.653C1823.4 183.676 1795.63 168.834 1768.58 176.081L1770.14 181.877ZM1769.42 182.075C1769.66 182.007 1769.9 181.941 1770.14 181.877L1768.58 176.081C1768.31 176.154 1768.05 176.228 1767.78 176.304L1769.42 182.075ZM1714.17 158.403C1735.59 152.664 1757.14 162.511 1765.9 180.503L1771.3 177.876C1761.2 157.144 1736.64 146.17 1712.62 152.608L1714.17 158.403ZM1693.94 169.684C1699.38 164.502 1706.25 160.524 1714.17 158.403L1712.62 152.608C1703.72 154.991 1695.96 159.473 1689.8 165.337L1693.94 169.684ZM1687.67 160.974C1688.27 163.242 1688.67 165.517 1688.88 167.781L1694.86 167.24C1694.62 164.636 1694.16 162.022 1693.46 159.421L1687.67 160.974ZM1633.24 131.645C1657.39 125.174 1681.64 138.494 1687.67 160.974L1693.46 159.421C1686.5 133.444 1658.73 118.603 1631.68 125.85L1633.24 131.645ZM1610.17 145.873C1615.98 139.254 1623.88 134.152 1633.24 131.645L1631.68 125.85C1621.17 128.667 1612.24 134.417 1605.66 141.916L1610.17 145.873ZM1586.15 144.702C1593.38 143.768 1600.48 144.541 1606.95 146.736L1608.88 141.053C1601.55 138.568 1593.52 137.699 1585.38 138.751L1586.15 144.702Z" fill="black" mask="url(#path-1-inside-1_425_2215)"/>
<mask id="path-3-inside-2_425_2215" fill="white">
<path fill-rule="evenodd" clip-rule="evenodd" d="M1744.9 218.771C1734.8 193.829 1710.16 179.17 1686.79 185.431C1671.33 189.574 1659.96 201.93 1655.12 217.538C1644.63 211.912 1631.79 210.141 1619.05 213.554C1612.3 215.364 1606.25 218.452 1601.12 222.462C1594.67 221.553 1587.89 221.905 1581.13 223.715C1557.92 229.935 1543.02 251.237 1545.29 273.219C1545.11 273.264 1544.93 273.31 1544.76 273.358C1519.16 280.217 1503.67 305.418 1510.16 329.646C1510.58 331.226 1511.09 332.762 1511.67 334.252C1501.21 328.672 1488.41 326.925 1475.72 330.326C1450.12 337.185 1434.63 362.386 1441.13 386.615C1442.78 392.807 1445.72 398.337 1449.6 403.024C1448.32 403.263 1447.04 403.554 1445.76 403.897C1420.16 410.756 1404.67 435.957 1411.16 460.186C1415.09 474.831 1426.14 485.769 1439.93 490.615C1443.6 497.684 1449.11 503.505 1455.74 507.691C1455.28 510.21 1455.34 512.713 1455.99 515.14C1459.93 529.823 1483.87 536.167 1509.47 529.308C1517.81 527.071 1525.31 523.707 1531.48 519.679C1579.39 565.577 1676.47 581.448 1778.08 554.222C1883.95 525.854 1962.17 459.423 1976.4 392.981C1980.01 392.824 1983.67 392.272 1987.32 391.293C2012.92 384.434 2028.41 359.232 2021.92 335.004C2017.5 318.527 2004.06 306.744 1987.86 303.047C1988.38 297.939 1988 292.684 1986.6 287.474C1980.11 263.245 1954.1 249.165 1928.5 256.024C1928.24 256.092 1927.99 256.162 1927.74 256.234C1918.3 236.872 1895.25 226.461 1872.53 232.55C1864.13 234.802 1856.81 239.031 1851.01 244.555C1850.79 242.121 1850.36 239.676 1849.7 237.242C1843.21 213.013 1817.2 198.933 1791.6 205.792C1781.66 208.454 1773.25 213.879 1767.05 220.939C1760.15 218.599 1752.59 217.778 1744.9 218.771ZM1495.55 419.139C1495.5 419.072 1495.44 419.005 1495.39 418.938C1496.67 418.698 1497.95 418.408 1499.23 418.065C1501.69 417.406 1504.06 416.577 1506.32 415.597C1506.21 415.913 1506.11 416.229 1506 416.546C1503.77 416.95 1501.51 417.455 1499.23 418.065C1497.99 418.399 1496.76 418.757 1495.55 419.139Z"/>
</mask>
<path fill-rule="evenodd" clip-rule="evenodd" d="M1744.9 218.771C1734.8 193.829 1710.16 179.17 1686.79 185.431C1671.33 189.574 1659.96 201.93 1655.12 217.538C1644.63 211.912 1631.79 210.141 1619.05 213.554C1612.3 215.364 1606.25 218.452 1601.12 222.462C1594.67 221.553 1587.89 221.905 1581.13 223.715C1557.92 229.935 1543.02 251.237 1545.29 273.219C1545.11 273.264 1544.93 273.31 1544.76 273.358C1519.16 280.217 1503.67 305.418 1510.16 329.646C1510.58 331.226 1511.09 332.762 1511.67 334.252C1501.21 328.672 1488.41 326.925 1475.72 330.326C1450.12 337.185 1434.63 362.386 1441.13 386.615C1442.78 392.807 1445.72 398.337 1449.6 403.024C1448.32 403.263 1447.04 403.554 1445.76 403.897C1420.16 410.756 1404.67 435.957 1411.16 460.186C1415.09 474.831 1426.14 485.769 1439.93 490.615C1443.6 497.684 1449.11 503.505 1455.74 507.691C1455.28 510.21 1455.34 512.713 1455.99 515.14C1459.93 529.823 1483.87 536.167 1509.47 529.308C1517.81 527.071 1525.31 523.707 1531.48 519.679C1579.39 565.577 1676.47 581.448 1778.08 554.222C1883.95 525.854 1962.17 459.423 1976.4 392.981C1980.01 392.824 1983.67 392.272 1987.32 391.293C2012.92 384.434 2028.41 359.232 2021.92 335.004C2017.5 318.527 2004.06 306.744 1987.86 303.047C1988.38 297.939 1988 292.684 1986.6 287.474C1980.11 263.245 1954.1 249.165 1928.5 256.024C1928.24 256.092 1927.99 256.162 1927.74 256.234C1918.3 236.872 1895.25 226.461 1872.53 232.55C1864.13 234.802 1856.81 239.031 1851.01 244.555C1850.79 242.121 1850.36 239.676 1849.7 237.242C1843.21 213.013 1817.2 198.933 1791.6 205.792C1781.66 208.454 1773.25 213.879 1767.05 220.939C1760.15 218.599 1752.59 217.778 1744.9 218.771ZM1495.55 419.139C1495.5 419.072 1495.44 419.005 1495.39 418.938C1496.67 418.698 1497.95 418.408 1499.23 418.065C1501.69 417.406 1504.06 416.577 1506.32 415.597C1506.21 415.913 1506.11 416.229 1506 416.546C1503.77 416.95 1501.51 417.455 1499.23 418.065C1497.99 418.399 1496.76 418.757 1495.55 419.139Z" fill="#8F9DD6"/>
<path d="M1744.9 218.771L1742.12 219.897L1742.99 222.043L1745.29 221.746L1744.9 218.771ZM1655.12 217.538L1653.7 220.181L1656.9 221.901L1657.98 218.427L1655.12 217.538ZM1601.12 222.462L1600.7 225.432L1601.96 225.61L1602.97 224.825L1601.12 222.462ZM1545.29 273.219L1546.03 276.125L1548.53 275.482L1548.27 272.911L1545.29 273.219ZM1511.67 334.252L1510.26 336.899L1517.43 340.72L1514.47 333.158L1511.67 334.252ZM1449.6 403.024L1450.15 405.972L1455.15 405.035L1451.91 401.111L1449.6 403.024ZM1439.93 490.615L1442.59 489.234L1442.05 488.179L1440.92 487.785L1439.93 490.615ZM1455.74 507.691L1458.69 508.234L1459.06 506.237L1457.34 505.154L1455.74 507.691ZM1531.48 519.679L1533.55 517.513L1531.83 515.865L1529.84 517.167L1531.48 519.679ZM1976.4 392.981L1976.27 389.984L1973.95 390.085L1973.46 392.353L1976.4 392.981ZM1987.86 303.047L1984.88 302.744L1984.61 305.382L1987.19 305.972L1987.86 303.047ZM1927.74 256.234L1925.04 257.548L1926.14 259.807L1928.56 259.12L1927.74 256.234ZM1851.01 244.555L1848.02 244.826L1848.58 251.006L1853.07 246.728L1851.01 244.555ZM1767.05 220.939L1766.09 223.78L1767.99 224.423L1769.31 222.917L1767.05 220.939ZM1495.39 418.938L1494.84 415.989L1489.83 416.927L1493.08 420.85L1495.39 418.938ZM1495.55 419.139L1493.23 421.038L1494.52 422.614L1496.46 421.999L1495.55 419.139ZM1506.32 415.597L1509.16 416.551L1511.31 410.165L1505.13 412.844L1506.32 415.597ZM1506 416.546L1506.54 419.498L1508.3 419.179L1508.86 417.477L1506 416.546ZM1687.56 188.329C1709.15 182.544 1732.46 196.034 1742.12 219.897L1747.68 217.645C1737.14 191.625 1711.16 175.796 1686.01 182.534L1687.56 188.329ZM1657.98 218.427C1662.57 203.642 1673.25 192.165 1687.56 188.329L1686.01 182.534C1669.4 186.984 1657.35 200.219 1652.25 216.649L1657.98 218.427ZM1619.83 216.452C1631.82 213.239 1643.88 214.913 1653.7 220.181L1656.53 214.894C1645.38 208.912 1631.76 207.044 1618.28 210.656L1619.83 216.452ZM1602.97 224.825C1607.78 221.061 1613.47 218.157 1619.83 216.452L1618.28 210.656C1611.13 212.572 1604.71 215.843 1599.27 220.098L1602.97 224.825ZM1581.91 226.613C1588.27 224.908 1594.65 224.58 1600.7 225.432L1601.54 219.491C1594.7 218.527 1587.5 218.902 1580.36 220.818L1581.91 226.613ZM1548.27 272.911C1546.17 252.491 1560.02 232.477 1581.91 226.613L1580.36 220.818C1555.82 227.393 1539.88 249.982 1542.3 273.526L1548.27 272.911ZM1545.53 276.255C1545.7 276.211 1545.87 276.167 1546.03 276.125L1544.54 270.313C1544.35 270.361 1544.17 270.41 1543.98 270.46L1545.53 276.255ZM1513.06 328.87C1507.04 306.39 1521.38 282.726 1545.53 276.255L1543.98 270.46C1516.93 277.707 1500.3 304.446 1507.26 330.423L1513.06 328.87ZM1514.47 333.158C1513.93 331.772 1513.45 330.341 1513.06 328.87L1507.26 330.423C1507.72 332.11 1508.26 333.752 1508.88 335.346L1514.47 333.158ZM1476.5 333.224C1488.45 330.021 1500.46 331.673 1510.26 336.899L1513.09 331.605C1501.96 325.671 1488.38 323.828 1474.94 327.428L1476.5 333.224ZM1444.02 385.838C1438 363.358 1452.35 339.695 1476.5 333.224L1474.94 327.428C1447.9 334.675 1431.27 361.414 1438.23 387.391L1444.02 385.838ZM1451.91 401.111C1448.3 396.747 1445.57 391.603 1444.02 385.838L1438.23 387.391C1440 394.012 1443.14 399.927 1447.28 404.936L1451.91 401.111ZM1446.53 406.795C1447.74 406.472 1448.94 406.198 1450.15 405.972L1449.04 400.075C1447.69 400.329 1446.33 400.636 1444.98 400.999L1446.53 406.795ZM1414.06 459.409C1408.04 436.929 1422.38 413.266 1446.53 406.795L1444.98 400.999C1417.93 408.246 1401.3 434.985 1408.26 460.962L1414.06 459.409ZM1440.92 487.785C1427.99 483.238 1417.7 473.016 1414.06 459.409L1408.26 460.962C1412.47 476.647 1424.3 488.3 1438.94 493.445L1440.92 487.785ZM1457.34 505.154C1451.13 501.237 1446 495.807 1442.59 489.234L1437.27 491.996C1441.19 499.562 1447.08 505.773 1454.14 510.229L1457.34 505.154ZM1458.89 514.363C1458.37 512.399 1458.3 510.349 1458.69 508.234L1452.79 507.148C1452.26 510.07 1452.32 513.026 1453.1 515.916L1458.89 514.363ZM1508.69 526.41C1496.3 529.729 1484.46 529.809 1475.37 527.402C1466.2 524.971 1460.46 520.222 1458.89 514.363L1453.1 515.916C1455.46 524.741 1463.66 530.506 1473.84 533.202C1484.11 535.923 1497.03 535.746 1510.24 532.206L1508.69 526.41ZM1529.84 517.167C1523.95 521.01 1516.75 524.25 1508.69 526.41L1510.24 532.206C1518.88 529.892 1526.66 526.404 1533.12 522.191L1529.84 517.167ZM1777.3 551.324C1676.2 578.415 1580.39 562.383 1533.55 517.513L1529.4 521.845C1578.39 568.772 1676.74 584.48 1778.85 557.12L1777.3 551.324ZM1973.46 392.353C1966.54 424.702 1943.94 457.375 1909.7 485.563C1875.49 513.723 1829.87 537.24 1777.3 551.324L1778.85 557.12C1832.16 542.836 1878.58 518.953 1913.51 490.195C1948.41 461.465 1972.03 427.702 1979.33 393.609L1973.46 392.353ZM1986.55 388.395C1983.11 389.317 1979.66 389.836 1976.27 389.984L1976.53 395.978C1980.36 395.812 1984.24 395.226 1988.1 394.19L1986.55 388.395ZM2019.02 335.78C2025.05 358.26 2010.7 381.924 1986.55 388.395L1988.1 394.19C2015.15 386.943 2031.78 360.204 2024.82 334.227L2019.02 335.78ZM1987.19 305.972C2002.41 309.445 2014.92 320.477 2019.02 335.78L2024.82 334.227C2020.09 316.577 2005.71 304.042 1988.53 300.122L1987.19 305.972ZM1983.71 288.25C1985.01 293.101 1985.36 297.99 1984.88 302.744L1990.84 303.35C1991.4 297.888 1990.99 292.266 1989.5 286.697L1983.71 288.25ZM1929.28 258.921C1953.43 252.45 1977.68 265.77 1983.71 288.25L1989.5 286.697C1982.54 260.72 1954.77 245.879 1927.72 253.126L1929.28 258.921ZM1928.56 259.12C1928.8 259.052 1929.04 258.986 1929.28 258.921L1927.72 253.126C1927.45 253.198 1927.18 253.272 1926.92 253.348L1928.56 259.12ZM1873.31 235.447C1894.73 229.708 1916.28 239.556 1925.04 257.548L1930.43 254.92C1920.33 234.188 1895.78 223.214 1871.76 229.652L1873.31 235.447ZM1853.07 246.728C1858.52 241.546 1865.39 237.568 1873.31 235.447L1871.76 229.652C1862.86 232.035 1855.1 236.517 1848.94 242.382L1853.07 246.728ZM1846.81 238.018C1847.41 240.286 1847.81 242.561 1848.02 244.826L1853.99 244.284C1853.76 241.68 1853.3 239.066 1852.6 236.465L1846.81 238.018ZM1792.37 208.689C1816.52 202.218 1840.78 215.538 1846.81 238.018L1852.6 236.465C1845.64 210.488 1817.87 195.647 1790.82 202.894L1792.37 208.689ZM1769.31 222.917C1775.12 216.298 1783.02 211.196 1792.37 208.689L1790.82 202.894C1780.31 205.712 1771.38 211.461 1764.8 218.96L1769.31 222.917ZM1745.29 221.746C1752.51 220.812 1759.62 221.585 1766.09 223.78L1768.02 218.097C1760.69 215.612 1752.66 214.744 1744.52 215.796L1745.29 221.746ZM1493.08 420.85C1493.13 420.913 1493.18 420.975 1493.23 421.038L1497.88 417.241C1497.82 417.169 1497.76 417.097 1497.7 417.026L1493.08 420.85ZM1498.45 415.167C1497.25 415.49 1496.04 415.764 1494.84 415.989L1495.94 421.887C1497.3 421.633 1498.65 421.325 1500.01 420.963L1498.45 415.167ZM1505.13 412.844C1503 413.766 1500.77 414.546 1498.45 415.167L1500.01 420.963C1502.61 420.265 1505.11 419.388 1507.51 418.349L1505.13 412.844ZM1508.86 417.477C1508.96 417.169 1509.06 416.86 1509.16 416.551L1503.47 414.642C1503.37 414.966 1503.26 415.29 1503.15 415.614L1508.86 417.477ZM1500.01 420.963C1502.2 420.375 1504.38 419.887 1506.54 419.498L1505.47 413.593C1503.15 414.013 1500.81 414.536 1498.45 415.167L1500.01 420.963ZM1496.46 421.999C1497.62 421.631 1498.81 421.285 1500.01 420.963L1498.45 415.167C1497.17 415.513 1495.9 415.884 1494.65 416.28L1496.46 421.999Z" fill="black" mask="url(#path-3-inside-2_425_2215)"/>
<mask id="path-5-inside-3_425_2215" fill="white">
<path fill-rule="evenodd" clip-rule="evenodd" d="M1248.81 367.373C1238.7 342.431 1214.06 327.772 1190.69 334.033C1175.23 338.176 1163.86 350.532 1159.02 366.139C1148.53 360.514 1135.69 358.743 1122.96 362.156C1116.2 363.966 1110.15 367.054 1105.02 371.063C1098.58 370.155 1091.79 370.507 1085.04 372.317C1061.82 378.537 1046.92 399.838 1049.19 421.821C1049.01 421.866 1048.84 421.912 1048.66 421.959C1023.06 428.818 1007.57 454.02 1014.07 478.248C1014.59 480.205 1015.24 482.096 1016.01 483.914C1005.35 477.663 992.386 475.508 979.624 478.928C954.026 485.787 938.936 512.476 945.92 538.54C947.226 543.415 949.212 547.923 951.745 551.986C951.05 552.141 950.355 552.312 949.66 552.498C924.062 559.358 908.573 584.559 915.065 608.787C918.989 623.433 930.047 634.371 943.834 639.217C947.501 646.286 953.009 652.107 959.647 656.293C959.184 658.811 959.247 661.314 959.897 663.741C963.832 678.425 987.773 684.769 1013.37 677.91C1021.72 675.673 1029.21 672.309 1035.38 668.281C1083.3 714.179 1180.37 730.049 1281.98 702.824C1387.85 674.455 1466.07 608.025 1480.3 541.583C1483.91 541.426 1487.58 540.873 1491.23 539.894C1516.83 533.035 1532.32 507.834 1525.82 483.606C1521.41 467.129 1507.97 455.345 1491.76 451.649C1492.28 446.541 1491.9 441.285 1490.51 436.075C1484.02 411.847 1458 397.766 1432.4 404.625C1432.15 404.693 1431.89 404.763 1431.64 404.835C1422.21 385.474 1399.16 375.063 1376.44 381.151C1368.03 383.404 1360.72 387.633 1354.91 393.157C1354.69 390.722 1354.26 388.278 1353.61 385.843C1347.11 361.615 1321.1 347.534 1295.5 354.393C1285.57 357.055 1277.15 362.481 1270.96 369.54C1264.06 367.2 1256.49 366.38 1248.81 367.373Z"/>
</mask>
<path fill-rule="evenodd" clip-rule="evenodd" d="M1248.81 367.373C1238.7 342.431 1214.06 327.772 1190.69 334.033C1175.23 338.176 1163.86 350.532 1159.02 366.139C1148.53 360.514 1135.69 358.743 1122.96 362.156C1116.2 363.966 1110.15 367.054 1105.02 371.063C1098.58 370.155 1091.79 370.507 1085.04 372.317C1061.82 378.537 1046.92 399.838 1049.19 421.821C1049.01 421.866 1048.84 421.912 1048.66 421.959C1023.06 428.818 1007.57 454.02 1014.07 478.248C1014.59 480.205 1015.24 482.096 1016.01 483.914C1005.35 477.663 992.386 475.508 979.624 478.928C954.026 485.787 938.936 512.476 945.92 538.54C947.226 543.415 949.212 547.923 951.745 551.986C951.05 552.141 950.355 552.312 949.66 552.498C924.062 559.358 908.573 584.559 915.065 608.787C918.989 623.433 930.047 634.371 943.834 639.217C947.501 646.286 953.009 652.107 959.647 656.293C959.184 658.811 959.247 661.314 959.897 663.741C963.832 678.425 987.773 684.769 1013.37 677.91C1021.72 675.673 1029.21 672.309 1035.38 668.281C1083.3 714.179 1180.37 730.049 1281.98 702.824C1387.85 674.455 1466.07 608.025 1480.3 541.583C1483.91 541.426 1487.58 540.873 1491.23 539.894C1516.83 533.035 1532.32 507.834 1525.82 483.606C1521.41 467.129 1507.97 455.345 1491.76 451.649C1492.28 446.541 1491.9 441.285 1490.51 436.075C1484.02 411.847 1458 397.766 1432.4 404.625C1432.15 404.693 1431.89 404.763 1431.64 404.835C1422.21 385.474 1399.16 375.063 1376.44 381.151C1368.03 383.404 1360.72 387.633 1354.91 393.157C1354.69 390.722 1354.26 388.278 1353.61 385.843C1347.11 361.615 1321.1 347.534 1295.5 354.393C1285.57 357.055 1277.15 362.481 1270.96 369.54C1264.06 367.2 1256.49 366.38 1248.81 367.373Z" fill="#8F9DD6"/>
<path d="M1248.81 367.373L1246.03 368.499L1246.9 370.644L1249.19 370.348L1248.81 367.373ZM1159.02 366.139L1157.6 368.783L1160.81 370.503L1161.89 367.028L1159.02 366.139ZM1105.02 371.063L1104.6 374.034L1105.87 374.212L1106.87 373.427L1105.02 371.063ZM1049.19 421.821L1049.94 424.726L1052.44 424.084L1052.17 421.513L1049.19 421.821ZM1016.01 483.914L1014.49 486.502L1022.29 491.078L1018.77 482.747L1016.01 483.914ZM951.745 551.986L952.401 554.913L956.53 553.989L954.291 550.399L951.745 551.986ZM943.834 639.217L946.497 637.835L945.95 636.78L944.828 636.386L943.834 639.217ZM959.647 656.293L962.598 656.836L962.965 654.839L961.248 653.756L959.647 656.293ZM1035.38 668.281L1037.46 666.114L1035.74 664.467L1033.74 665.769L1035.38 668.281ZM1480.3 541.583L1480.17 538.586L1477.85 538.687L1477.37 540.955L1480.3 541.583ZM1491.76 451.649L1488.78 451.346L1488.51 453.984L1491.1 454.574L1491.76 451.649ZM1431.64 404.835L1428.94 406.149L1430.04 408.408L1432.46 407.721L1431.64 404.835ZM1354.91 393.157L1351.92 393.427L1352.48 399.608L1356.98 395.33L1354.91 393.157ZM1270.96 369.54L1270 372.381L1271.89 373.024L1273.21 371.519L1270.96 369.54ZM1191.47 336.931C1213.06 331.146 1236.36 344.636 1246.03 368.499L1251.59 366.246C1241.05 340.226 1215.06 324.397 1189.92 331.135L1191.47 336.931ZM1161.89 367.028C1166.47 352.243 1177.15 340.766 1191.47 336.931L1189.92 331.135C1173.31 335.586 1161.25 348.82 1156.16 365.25L1161.89 367.028ZM1123.74 365.054C1135.73 361.841 1147.78 363.515 1157.6 368.783L1160.44 363.496C1149.29 357.514 1135.66 355.646 1122.18 359.258L1123.74 365.054ZM1106.87 373.427C1111.69 369.663 1117.37 366.758 1123.74 365.054L1122.18 359.258C1115.03 361.174 1108.62 364.444 1103.18 368.7L1106.87 373.427ZM1085.81 375.215C1092.17 373.51 1098.55 373.182 1104.6 374.034L1105.44 368.093C1098.6 367.129 1091.41 367.504 1084.26 369.419L1085.81 375.215ZM1052.17 421.513C1050.07 401.093 1063.93 381.079 1085.81 375.215L1084.26 369.419C1059.72 375.995 1043.78 398.584 1046.21 422.128L1052.17 421.513ZM1049.44 424.857C1049.6 424.813 1049.77 424.769 1049.94 424.726L1048.44 418.915C1048.26 418.963 1048.07 419.012 1047.88 419.062L1049.44 424.857ZM1016.96 477.472C1010.94 454.992 1025.29 431.328 1049.44 424.857L1047.88 419.062C1020.84 426.309 1004.21 453.048 1011.17 479.025L1016.96 477.472ZM1018.77 482.747C1018.06 481.055 1017.45 479.295 1016.96 477.472L1011.17 479.025C1011.73 481.115 1012.42 483.137 1013.25 485.082L1018.77 482.747ZM980.4 481.825C992.349 478.624 1004.49 480.636 1014.49 486.502L1017.53 481.327C1006.21 474.69 992.424 472.392 978.848 476.03L980.4 481.825ZM948.817 537.763C942.249 513.25 956.452 488.242 980.4 481.825L978.848 476.03C951.6 483.331 935.622 511.702 943.022 539.316L948.817 537.763ZM954.291 550.399C951.913 546.585 950.046 542.35 948.817 537.763L943.022 539.316C944.406 544.481 946.511 549.262 949.2 553.573L954.291 550.399ZM950.436 555.396C951.091 555.221 951.746 555.06 952.401 554.913L951.09 549.058C950.354 549.223 949.619 549.404 948.883 549.601L950.436 555.396ZM917.963 608.011C911.939 585.531 926.286 561.867 950.436 555.396L948.883 549.601C921.837 556.848 905.207 583.587 912.167 609.564L917.963 608.011ZM944.828 636.386C931.893 631.84 921.609 621.618 917.963 608.011L912.167 609.564C916.37 625.248 928.2 636.901 942.839 642.047L944.828 636.386ZM961.248 653.756C955.037 649.839 949.906 644.408 946.497 637.835L941.171 640.598C945.095 648.164 950.981 654.375 958.047 658.831L961.248 653.756ZM962.795 662.965C962.269 661.001 962.209 658.951 962.598 656.836L956.697 655.75C956.159 658.672 956.225 661.628 957 664.518L962.795 662.965ZM1012.59 675.012C1000.21 678.331 988.364 678.411 979.279 676.004C970.102 673.573 964.365 668.824 962.795 662.965L957 664.518C959.364 673.343 967.565 679.108 977.742 681.804C988.011 684.525 1000.94 684.347 1014.15 680.807L1012.59 675.012ZM1033.74 665.769C1027.85 669.612 1020.66 672.852 1012.59 675.012L1014.15 680.807C1022.78 678.494 1030.57 675.006 1037.02 670.793L1033.74 665.769ZM1281.21 699.926C1180.1 727.017 1084.3 710.984 1037.46 666.114L1033.31 670.447C1082.29 717.374 1180.65 733.082 1282.76 705.721L1281.21 699.926ZM1477.37 540.955C1470.44 573.304 1447.84 605.977 1413.6 634.165C1379.4 662.325 1333.77 685.841 1281.21 699.926L1282.76 705.721C1336.07 691.438 1382.48 667.555 1417.41 638.797C1452.31 610.067 1475.93 576.304 1483.23 542.211L1477.37 540.955ZM1490.45 536.997C1487.01 537.919 1483.57 538.438 1480.17 538.586L1480.43 544.58C1484.26 544.413 1488.14 543.828 1492.01 542.792L1490.45 536.997ZM1522.93 484.382C1528.95 506.862 1514.6 530.526 1490.45 536.997L1492.01 542.792C1519.05 535.545 1535.68 508.806 1528.72 482.829L1522.93 484.382ZM1491.1 454.574C1506.32 458.047 1518.83 469.079 1522.93 484.382L1528.72 482.829C1523.99 465.179 1509.61 452.644 1492.43 448.724L1491.1 454.574ZM1487.61 436.852C1488.91 441.703 1489.26 446.592 1488.78 451.346L1494.75 451.952C1495.3 446.489 1494.9 440.868 1493.4 435.299L1487.61 436.852ZM1433.18 407.523C1457.33 401.052 1481.59 414.372 1487.61 436.852L1493.4 435.299C1486.44 409.322 1458.67 394.48 1431.63 401.727L1433.18 407.523ZM1432.46 407.721C1432.7 407.653 1432.94 407.587 1433.18 407.523L1431.63 401.727C1431.36 401.799 1431.09 401.874 1430.82 401.95L1432.46 407.721ZM1377.21 384.049C1398.63 378.31 1420.18 388.157 1428.94 406.149L1434.34 403.521C1424.24 382.79 1399.68 371.816 1375.66 378.254L1377.21 384.049ZM1356.98 395.33C1362.42 390.148 1369.3 386.17 1377.21 384.049L1375.66 378.254C1366.76 380.637 1359.01 385.119 1352.84 390.984L1356.98 395.33ZM1350.71 386.62C1351.32 388.888 1351.72 391.163 1351.92 393.427L1357.9 392.886C1357.66 390.282 1357.2 387.668 1356.5 385.067L1350.71 386.62ZM1296.28 357.291C1320.43 350.82 1344.69 364.14 1350.71 386.62L1356.5 385.067C1349.54 359.09 1321.77 344.248 1294.73 351.495L1296.28 357.291ZM1273.21 371.519C1279.02 364.899 1286.92 359.798 1296.28 357.291L1294.73 351.495C1284.21 354.313 1275.29 360.062 1268.7 367.561L1273.21 371.519ZM1249.19 370.348C1256.42 369.414 1263.52 370.187 1270 372.381L1271.92 366.699C1264.59 364.214 1256.57 363.345 1248.42 364.397L1249.19 370.348Z" fill="black" mask="url(#path-5-inside-3_425_2215)"/>
<mask id="path-7-inside-4_425_2215" fill="white">
<path fill-rule="evenodd" clip-rule="evenodd" d="M1620.26 354.755C1610.16 329.814 1585.52 315.155 1562.15 321.416C1546.69 325.559 1535.32 337.915 1530.48 353.522C1519.99 347.897 1507.15 346.126 1494.42 349.538C1487.66 351.349 1481.61 354.436 1476.48 358.446C1470.03 357.538 1463.25 357.89 1456.49 359.7C1433.28 365.919 1418.38 387.221 1420.65 409.203C1420.47 409.248 1420.29 409.294 1420.12 409.342C1394.52 416.201 1379.03 441.402 1385.52 465.631C1386.03 467.51 1386.65 469.329 1387.38 471.081C1376.76 464.967 1363.83 462.895 1351.08 466.31C1325.48 473.169 1310.31 499.561 1317.2 525.258C1318.57 530.387 1320.72 535.101 1323.49 539.306C1322.7 539.478 1321.91 539.67 1321.12 539.881C1295.52 546.74 1280.03 571.942 1286.52 596.17C1290.45 610.816 1301.5 621.753 1315.29 626.599C1318.96 633.669 1324.47 639.489 1331.1 643.676C1330.64 646.194 1330.7 648.697 1331.35 651.124C1335.29 665.808 1359.23 672.151 1384.83 665.292C1393.18 663.056 1400.67 659.692 1406.84 655.664C1454.75 701.562 1551.83 717.432 1653.44 690.206C1759.31 661.838 1837.53 595.408 1851.76 528.966C1855.37 528.809 1859.03 528.256 1862.69 527.277C1888.28 520.418 1903.77 495.217 1897.28 470.988C1892.87 454.512 1879.42 442.728 1863.22 439.032C1863.74 433.924 1863.36 428.668 1861.96 423.458C1855.47 399.23 1829.46 385.149 1803.86 392.008C1803.61 392.076 1803.35 392.146 1803.1 392.218C1793.67 372.856 1770.62 362.446 1747.89 368.534C1739.49 370.786 1732.17 375.016 1726.37 380.54C1726.15 378.105 1725.72 375.661 1725.06 373.226C1718.57 348.998 1692.56 334.917 1666.96 341.776C1657.02 344.438 1648.61 349.864 1642.42 356.923C1635.51 354.583 1627.95 353.762 1620.26 354.755Z"/>
</mask>
<path fill-rule="evenodd" clip-rule="evenodd" d="M1620.26 354.755C1610.16 329.814 1585.52 315.155 1562.15 321.416C1546.69 325.559 1535.32 337.915 1530.48 353.522C1519.99 347.897 1507.15 346.126 1494.42 349.538C1487.66 351.349 1481.61 354.436 1476.48 358.446C1470.03 357.538 1463.25 357.89 1456.49 359.7C1433.28 365.919 1418.38 387.221 1420.65 409.203C1420.47 409.248 1420.29 409.294 1420.12 409.342C1394.52 416.201 1379.03 441.402 1385.52 465.631C1386.03 467.51 1386.65 469.329 1387.38 471.081C1376.76 464.967 1363.83 462.895 1351.08 466.31C1325.48 473.169 1310.31 499.561 1317.2 525.258C1318.57 530.387 1320.72 535.101 1323.49 539.306C1322.7 539.478 1321.91 539.67 1321.12 539.881C1295.52 546.74 1280.03 571.942 1286.52 596.17C1290.45 610.816 1301.5 621.753 1315.29 626.599C1318.96 633.669 1324.47 639.489 1331.1 643.676C1330.64 646.194 1330.7 648.697 1331.35 651.124C1335.29 665.808 1359.23 672.151 1384.83 665.292C1393.18 663.056 1400.67 659.692 1406.84 655.664C1454.75 701.562 1551.83 717.432 1653.44 690.206C1759.31 661.838 1837.53 595.408 1851.76 528.966C1855.37 528.809 1859.03 528.256 1862.69 527.277C1888.28 520.418 1903.77 495.217 1897.28 470.988C1892.87 454.512 1879.42 442.728 1863.22 439.032C1863.74 433.924 1863.36 428.668 1861.96 423.458C1855.47 399.23 1829.46 385.149 1803.86 392.008C1803.61 392.076 1803.35 392.146 1803.1 392.218C1793.67 372.856 1770.62 362.446 1747.89 368.534C1739.49 370.786 1732.17 375.016 1726.37 380.54C1726.15 378.105 1725.72 375.661 1725.06 373.226C1718.57 348.998 1692.56 334.917 1666.96 341.776C1657.02 344.438 1648.61 349.864 1642.42 356.923C1635.51 354.583 1627.95 353.762 1620.26 354.755Z" fill="#8F9DD6"/>
<path d="M1620.26 354.755L1617.48 355.882L1618.35 358.027L1620.65 357.731L1620.26 354.755ZM1530.48 353.522L1529.06 356.166L1532.27 357.885L1533.34 354.411L1530.48 353.522ZM1476.48 358.446L1476.06 361.417L1477.32 361.595L1478.33 360.809L1476.48 358.446ZM1420.65 409.203L1421.39 412.109L1423.9 411.466L1423.63 408.896L1420.65 409.203ZM1387.38 471.081L1385.88 473.681L1393.55 478.094L1390.15 469.929L1387.38 471.081ZM1323.49 539.306L1324.12 542.237L1328.39 541.308L1325.99 537.659L1323.49 539.306ZM1315.29 626.599L1317.95 625.218L1317.41 624.163L1316.29 623.769L1315.29 626.599ZM1331.1 643.676L1334.06 644.218L1334.42 642.221L1332.71 641.138L1331.1 643.676ZM1406.84 655.664L1408.92 653.497L1407.2 651.85L1405.2 653.151L1406.84 655.664ZM1851.76 528.966L1851.63 525.969L1849.31 526.069L1848.82 528.338L1851.76 528.966ZM1863.22 439.032L1860.24 438.729L1859.97 441.367L1862.55 441.957L1863.22 439.032ZM1803.1 392.218L1800.4 393.532L1801.5 395.791L1803.92 395.104L1803.1 392.218ZM1726.37 380.54L1723.38 380.81L1723.94 386.991L1728.44 382.713L1726.37 380.54ZM1642.42 356.923L1641.45 359.764L1643.35 360.407L1644.67 358.902L1642.42 356.923ZM1562.93 324.314C1584.51 318.529 1607.82 332.018 1617.48 355.882L1623.05 353.629C1612.5 327.609 1586.52 311.78 1561.37 318.518L1562.93 324.314ZM1533.34 354.411C1537.93 339.626 1548.61 328.149 1562.93 324.314L1561.37 318.518C1544.76 322.969 1532.71 336.203 1527.61 352.633L1533.34 354.411ZM1495.19 352.436C1507.18 349.223 1519.24 350.897 1529.06 356.166L1531.9 350.878C1520.74 344.896 1507.12 343.028 1493.64 346.641L1495.19 352.436ZM1478.33 360.809C1483.14 357.045 1488.83 354.141 1495.19 352.436L1493.64 346.641C1486.49 348.556 1480.08 351.827 1474.63 356.083L1478.33 360.809ZM1457.27 362.598C1463.63 360.893 1470.01 360.564 1476.06 361.417L1476.9 355.475C1470.06 354.512 1462.87 354.886 1455.72 356.802L1457.27 362.598ZM1423.63 408.896C1421.53 388.476 1435.39 368.461 1457.27 362.598L1455.72 356.802C1431.18 363.377 1415.24 385.966 1417.66 409.51L1423.63 408.896ZM1420.89 412.239C1421.06 412.195 1421.23 412.151 1421.39 412.109L1419.9 406.297C1419.71 406.345 1419.53 406.394 1419.34 406.444L1420.89 412.239ZM1388.42 464.854C1382.4 442.374 1396.74 418.71 1420.89 412.239L1419.34 406.444C1392.29 413.691 1375.66 440.43 1382.63 466.407L1388.42 464.854ZM1390.15 469.929C1389.47 468.298 1388.89 466.605 1388.42 464.854L1382.63 466.407C1383.16 468.415 1383.83 470.359 1384.61 472.234L1390.15 469.929ZM1351.86 469.208C1363.81 466.007 1375.92 467.946 1385.88 473.681L1388.87 468.481C1377.6 461.988 1363.85 459.783 1350.31 463.413L1351.86 469.208ZM1320.1 524.482C1313.64 500.375 1327.87 475.636 1351.86 469.208L1350.31 463.413C1323.1 470.703 1306.99 498.748 1314.3 526.035L1320.1 524.482ZM1325.99 537.659C1323.4 533.718 1321.39 529.298 1320.1 524.482L1314.3 526.035C1315.76 531.477 1318.04 536.484 1320.98 540.954L1325.99 537.659ZM1321.89 542.779C1322.64 542.58 1323.38 542.399 1324.12 542.237L1322.85 536.375C1322.01 536.557 1321.18 536.76 1320.34 536.983L1321.89 542.779ZM1289.42 595.394C1283.4 572.914 1297.74 549.25 1321.89 542.779L1320.34 536.983C1293.29 544.231 1276.66 570.97 1283.62 596.947L1289.42 595.394ZM1316.29 623.769C1303.35 619.222 1293.07 609 1289.42 595.394L1283.62 596.947C1287.83 612.631 1299.66 624.284 1314.3 629.43L1316.29 623.769ZM1332.71 641.138C1326.49 637.221 1321.36 631.791 1317.95 625.218L1312.63 627.981C1316.55 635.547 1322.44 641.757 1329.5 646.213L1332.71 641.138ZM1334.25 650.348C1333.73 648.384 1333.67 646.334 1334.06 644.218L1328.15 643.133C1327.62 646.055 1327.68 649.01 1328.46 651.901L1334.25 650.348ZM1384.05 662.395C1371.67 665.714 1359.82 665.794 1350.74 663.387C1341.56 660.955 1335.82 656.207 1334.25 650.348L1328.46 651.901C1330.82 660.726 1339.02 666.49 1349.2 669.187C1359.47 671.908 1372.39 671.73 1385.61 668.19L1384.05 662.395ZM1405.2 653.151C1399.31 656.995 1392.11 660.235 1384.05 662.395L1385.61 668.19C1394.24 665.877 1402.03 662.388 1408.48 658.176L1405.2 653.151ZM1652.66 687.309C1551.56 714.4 1455.76 698.367 1408.92 653.497L1404.76 657.83C1453.75 704.757 1552.11 720.465 1654.22 693.104L1652.66 687.309ZM1848.82 528.338C1841.9 560.687 1819.3 593.36 1785.06 621.548C1750.85 649.708 1705.23 673.224 1652.66 687.309L1654.22 693.104C1707.52 678.82 1753.94 654.938 1788.87 626.18C1823.77 597.45 1847.39 563.687 1854.69 529.594L1848.82 528.338ZM1861.91 524.379C1858.47 525.302 1855.02 525.821 1851.63 525.969L1851.89 531.963C1855.72 531.796 1859.6 531.211 1863.46 530.175L1861.91 524.379ZM1894.38 471.765C1900.41 494.245 1886.06 517.908 1861.91 524.379L1863.46 530.175C1890.51 522.928 1907.14 496.189 1900.18 470.212L1894.38 471.765ZM1862.55 441.957C1877.78 445.429 1890.28 456.462 1894.38 471.765L1900.18 470.212C1895.45 452.562 1881.07 440.027 1863.89 436.107L1862.55 441.957ZM1859.07 424.234C1860.37 429.086 1860.72 433.975 1860.24 438.729L1866.21 439.335C1866.76 433.872 1866.35 428.251 1864.86 422.682L1859.07 424.234ZM1804.64 394.906C1828.79 388.435 1853.04 401.754 1859.07 424.234L1864.86 422.682C1857.9 396.705 1830.13 381.863 1803.08 389.11L1804.64 394.906ZM1803.92 395.104C1804.16 395.036 1804.4 394.97 1804.64 394.906L1803.08 389.11C1802.81 389.182 1802.55 389.256 1802.28 389.333L1803.92 395.104ZM1748.67 371.432C1770.09 365.692 1791.64 375.54 1800.4 393.532L1805.8 390.904C1795.7 370.173 1771.14 359.199 1747.12 365.636L1748.67 371.432ZM1728.44 382.713C1733.88 377.531 1740.75 373.553 1748.67 371.432L1747.12 365.636C1738.22 368.02 1730.46 372.502 1724.3 378.366L1728.44 382.713ZM1722.17 374.003C1722.77 376.271 1723.17 378.546 1723.38 380.81L1729.36 380.269C1729.12 377.665 1728.66 375.051 1727.96 372.45L1722.17 374.003ZM1667.74 344.674C1691.89 338.203 1716.14 351.523 1722.17 374.003L1727.96 372.45C1721 346.473 1693.23 331.631 1666.18 338.878L1667.74 344.674ZM1644.67 358.902C1650.48 352.282 1658.38 347.18 1667.74 344.674L1666.18 338.878C1655.67 341.696 1646.74 347.445 1640.16 354.944L1644.67 358.902ZM1620.65 357.731C1627.88 356.797 1634.98 357.57 1641.45 359.764L1643.38 354.082C1636.05 351.597 1628.02 350.728 1619.88 351.78L1620.65 357.731Z" fill="black" mask="url(#path-7-inside-4_425_2215)"/>
<mask id="path-9-inside-5_425_2215" fill="white">
<path fill-rule="evenodd" clip-rule="evenodd" d="M-44.8529 296.991C-41.5486 270.284 -21.5383 249.746 2.65311 249.746C18.6609 249.746 32.8379 258.739 41.5552 272.561C50.2284 264.414 62.1717 259.38 75.3571 259.38C82.3508 259.38 88.9951 260.796 94.9872 263.342C100.979 260.796 107.624 259.38 114.617 259.38C138.648 259.38 158.553 276.1 162.055 297.919C162.237 297.917 162.42 297.916 162.602 297.916C189.103 297.916 210.587 318.25 210.587 343.333C210.587 345.359 210.447 347.354 210.175 349.309C218.853 340.512 230.818 335.075 244.031 335.075C270.532 335.075 292.015 356.95 292.015 383.933C292.015 388.98 291.264 393.849 289.868 398.429C290.58 398.399 291.296 398.384 292.015 398.384C318.517 398.384 340 418.718 340 443.801C340 458.963 332.15 472.39 320.087 480.639C318.375 488.417 314.561 495.465 309.232 501.227C310.331 503.539 310.918 505.973 310.918 508.486C310.918 523.688 289.435 536.011 262.934 536.011C254.292 536.011 246.184 534.701 239.18 532.408C204.779 589.143 115.116 629.598 9.92346 629.598C-99.6834 629.598 -192.43 585.676 -223.37 525.18C-226.9 525.963 -230.58 526.378 -234.362 526.378C-260.863 526.378 -282.347 506.044 -282.347 480.961C-282.347 463.903 -272.411 449.041 -257.719 441.278C-259.542 436.478 -260.536 431.303 -260.536 425.909C-260.536 400.826 -239.052 380.492 -212.551 380.492C-212.287 380.492 -212.024 380.494 -211.761 380.498C-207.661 359.355 -188.09 343.333 -164.566 343.333C-155.865 343.333 -147.704 345.525 -140.667 349.358C-141.084 346.95 -141.301 344.477 -141.301 341.957C-141.301 316.873 -119.818 296.54 -93.3163 296.54C-83.0303 296.54 -73.5002 299.603 -65.6888 304.818C-59.6282 300.772 -52.533 298.021 -44.8529 296.991Z"/>
</mask>
<path fill-rule="evenodd" clip-rule="evenodd" d="M-44.8529 296.991C-41.5486 270.284 -21.5383 249.746 2.65311 249.746C18.6609 249.746 32.8379 258.739 41.5552 272.561C50.2284 264.414 62.1717 259.38 75.3571 259.38C82.3508 259.38 88.9951 260.796 94.9872 263.342C100.979 260.796 107.624 259.38 114.617 259.38C138.648 259.38 158.553 276.1 162.055 297.919C162.237 297.917 162.42 297.916 162.602 297.916C189.103 297.916 210.587 318.25 210.587 343.333C210.587 345.359 210.447 347.354 210.175 349.309C218.853 340.512 230.818 335.075 244.031 335.075C270.532 335.075 292.015 356.95 292.015 383.933C292.015 388.98 291.264 393.849 289.868 398.429C290.58 398.399 291.296 398.384 292.015 398.384C318.517 398.384 340 418.718 340 443.801C340 458.963 332.15 472.39 320.087 480.639C318.375 488.417 314.561 495.465 309.232 501.227C310.331 503.539 310.918 505.973 310.918 508.486C310.918 523.688 289.435 536.011 262.934 536.011C254.292 536.011 246.184 534.701 239.18 532.408C204.779 589.143 115.116 629.598 9.92346 629.598C-99.6834 629.598 -192.43 585.676 -223.37 525.18C-226.9 525.963 -230.58 526.378 -234.362 526.378C-260.863 526.378 -282.347 506.044 -282.347 480.961C-282.347 463.903 -272.411 449.041 -257.719 441.278C-259.542 436.478 -260.536 431.303 -260.536 425.909C-260.536 400.826 -239.052 380.492 -212.551 380.492C-212.287 380.492 -212.024 380.494 -211.761 380.498C-207.661 359.355 -188.09 343.333 -164.566 343.333C-155.865 343.333 -147.704 345.525 -140.667 349.358C-141.084 346.95 -141.301 344.477 -141.301 341.957C-141.301 316.873 -119.818 296.54 -93.3163 296.54C-83.0303 296.54 -73.5002 299.603 -65.6888 304.818C-59.6282 300.772 -52.533 298.021 -44.8529 296.991Z" fill="#8F9DD6"/>
<path d="M-44.8529 296.991L-41.8756 297.359L-42.1599 299.657L-44.4542 299.964L-44.8529 296.991ZM41.5552 272.561L43.6093 274.748L40.9581 277.239L39.0177 274.162L41.5552 272.561ZM94.9872 263.342L96.1603 266.103L94.9872 266.602L93.8141 266.103L94.9872 263.342ZM162.055 297.919L162.087 300.919L159.503 300.946L159.093 298.394L162.055 297.919ZM210.175 349.309L212.311 351.416L205.959 357.855L207.204 348.897L210.175 349.309ZM289.868 398.429L289.993 401.426L285.765 401.602L286.998 397.554L289.868 398.429ZM320.087 480.639L317.157 479.994L317.413 478.834L318.394 478.163L320.087 480.639ZM309.232 501.227L306.523 502.515L305.651 500.681L307.03 499.19L309.232 501.227ZM239.18 532.408L236.615 530.852L237.85 528.816L240.114 529.557L239.18 532.408ZM-223.37 525.18L-224.019 522.252L-221.755 521.749L-220.699 523.814L-223.37 525.18ZM-257.719 441.278L-254.914 440.212L-253.973 442.691L-256.317 443.93L-257.719 441.278ZM-211.761 380.498L-208.816 381.069L-209.294 383.536L-211.807 383.498L-211.761 380.498ZM-140.667 349.358L-137.711 348.846L-136.652 354.961L-142.102 351.993L-140.667 349.358ZM-65.6888 304.818L-64.023 307.313L-65.6888 308.425L-67.3546 307.313L-65.6888 304.818ZM2.65311 252.746C-19.6972 252.746 -38.7141 271.807 -41.8756 297.359L-47.8302 296.623C-44.383 268.761 -23.3794 246.746 2.65311 246.746V252.746ZM39.0177 274.162C30.7598 261.068 17.4726 252.746 2.65311 252.746V246.746C19.8492 246.746 34.916 256.41 44.0927 270.961L39.0177 274.162ZM75.3571 262.38C62.9429 262.38 51.732 267.117 43.6093 274.748L39.5012 270.375C48.7248 261.71 61.4005 256.38 75.3571 256.38V262.38ZM93.8141 266.103C88.1891 263.713 81.9435 262.38 75.3571 262.38V256.38C82.7581 256.38 89.801 257.879 96.1603 260.581L93.8141 266.103ZM114.617 262.38C108.031 262.38 101.785 263.713 96.1603 266.103L93.8141 260.581C100.173 257.879 107.216 256.38 114.617 256.38V262.38ZM159.093 298.394C155.84 278.126 137.274 262.38 114.617 262.38V256.38C140.022 256.38 161.266 274.074 165.017 297.443L159.093 298.394ZM162.602 300.916C162.43 300.916 162.258 300.917 162.087 300.919L162.024 294.919C162.216 294.917 162.409 294.916 162.602 294.916V300.916ZM207.587 343.333C207.587 320.06 187.604 300.916 162.602 300.916V294.916C190.603 294.916 213.587 316.44 213.587 343.333H207.587ZM207.204 348.897C207.456 347.077 207.587 345.22 207.587 343.333H213.587C213.587 345.497 213.437 347.63 213.146 349.722L207.204 348.897ZM244.031 338.075C231.661 338.075 220.454 343.161 212.311 351.416L208.039 347.203C217.252 337.864 229.975 332.075 244.031 332.075V338.075ZM289.015 383.933C289.015 358.555 268.824 338.075 244.031 338.075V332.075C272.239 332.075 295.015 355.344 295.015 383.933H289.015ZM286.998 397.554C288.308 393.255 289.015 388.681 289.015 383.933H295.015C295.015 389.279 294.219 394.442 292.738 399.303L286.998 397.554ZM292.015 401.384C291.337 401.384 290.663 401.398 289.993 401.426L289.743 395.431C290.497 395.4 291.254 395.384 292.015 395.384V401.384ZM337 443.801C337 420.528 317.017 401.384 292.015 401.384V395.384C320.016 395.384 343 416.908 343 443.801H337ZM318.394 478.163C329.712 470.423 337 457.888 337 443.801H343C343 460.039 334.589 474.357 321.781 483.116L318.394 478.163ZM307.03 499.19C312.015 493.799 315.565 487.226 317.157 479.994L323.017 481.284C321.184 489.608 317.106 497.131 311.435 503.264L307.03 499.19ZM307.918 508.486C307.918 506.453 307.446 504.457 306.523 502.515L311.942 499.939C313.217 502.622 313.918 505.494 313.918 508.486H307.918ZM262.934 533.011C275.757 533.011 287.219 530.024 295.371 525.347C303.606 520.623 307.918 514.552 307.918 508.486H313.918C313.918 517.622 307.489 525.313 298.357 530.552C289.142 535.838 276.612 539.011 262.934 539.011V533.011ZM240.114 529.557C246.796 531.745 254.588 533.011 262.934 533.011V539.011C253.996 539.011 245.571 537.657 238.247 535.259L240.114 529.557ZM9.92346 626.598C114.595 626.598 202.984 586.316 236.615 530.852L241.745 533.963C206.573 591.97 115.636 632.598 9.92346 632.598V626.598ZM-220.699 523.814C-205.635 553.268 -175.348 578.979 -134.981 597.345C-94.6542 615.692 -44.4952 626.598 9.92346 626.598V632.598C-45.2648 632.598 -96.2827 621.543 -137.466 602.806C-178.609 584.087 -210.165 557.588 -226.041 526.546L-220.699 523.814ZM-234.362 523.378C-230.799 523.378 -227.337 522.987 -224.019 522.252L-222.72 528.109C-226.462 528.939 -230.36 529.378 -234.362 529.378V523.378ZM-279.347 480.961C-279.347 504.234 -259.364 523.378 -234.362 523.378V529.378C-262.363 529.378 -285.347 507.854 -285.347 480.961H-279.347ZM-256.317 443.93C-270.121 451.224 -279.347 465.118 -279.347 480.961H-285.347C-285.347 462.688 -274.702 446.858 -259.121 438.625L-256.317 443.93ZM-257.536 425.909C-257.536 430.932 -256.611 435.746 -254.914 440.212L-260.523 442.343C-262.473 437.21 -263.536 431.675 -263.536 425.909H-257.536ZM-212.551 383.492C-237.553 383.492 -257.536 402.636 -257.536 425.909H-263.536C-263.536 399.016 -240.552 377.492 -212.551 377.492V383.492ZM-211.807 383.498C-212.054 383.494 -212.302 383.492 -212.551 383.492V377.492C-212.272 377.492 -211.993 377.494 -211.715 377.499L-211.807 383.498ZM-164.566 346.333C-186.742 346.333 -205.006 361.422 -208.816 381.069L-214.706 379.927C-210.316 357.288 -189.438 340.333 -164.566 340.333V346.333ZM-142.102 351.993C-148.704 348.397 -156.372 346.333 -164.566 346.333V340.333C-155.357 340.333 -146.704 342.654 -139.232 346.724L-142.102 351.993ZM-138.301 341.957C-138.301 344.305 -138.099 346.606 -137.711 348.846L-143.623 349.87C-144.069 347.293 -144.301 344.65 -144.301 341.957H-138.301ZM-93.3163 299.54C-118.318 299.54 -138.301 318.684 -138.301 341.957H-144.301C-144.301 315.063 -121.317 293.54 -93.3163 293.54V299.54ZM-67.3546 307.313C-74.6795 302.423 -83.6312 299.54 -93.3163 299.54V293.54C-82.4294 293.54 -72.3209 296.783 -64.023 302.323L-67.3546 307.313ZM-44.4542 299.964C-51.6768 300.933 -58.3392 303.518 -64.023 307.313L-67.3546 302.323C-60.9172 298.025 -53.3892 295.109 -45.2516 294.018L-44.4542 299.964Z" fill="black" mask="url(#path-9-inside-5_425_2215)"/>
<mask id="path-11-inside-6_425_2215" fill="white">
<path fill-rule="evenodd" clip-rule="evenodd" d="M371.27 186.245C374.574 159.538 394.584 139 418.776 139C434.783 139 448.96 147.993 457.678 161.815C466.351 153.668 478.294 148.634 491.48 148.634C498.473 148.634 505.118 150.05 511.11 152.596C517.102 150.05 523.746 148.634 530.74 148.634C554.771 148.634 574.675 165.353 578.178 187.173C578.36 187.171 578.542 187.17 578.725 187.17C605.226 187.17 626.709 207.504 626.709 232.587C626.709 234.613 626.569 236.608 626.297 238.563C634.975 229.766 646.94 224.329 660.153 224.329C686.654 224.329 708.138 246.203 708.138 273.187C708.138 278.234 707.386 283.102 705.991 287.682C706.702 287.653 707.418 287.638 708.138 287.638C734.639 287.638 756.123 307.972 756.123 333.055C756.123 348.217 748.273 361.644 736.21 369.893C734.497 377.671 730.683 384.719 725.354 390.48C726.454 392.793 727.041 395.227 727.041 397.74C727.041 412.942 705.557 425.265 679.056 425.265C670.415 425.265 662.306 423.955 655.303 421.662C620.901 478.397 531.238 518.852 426.046 518.852C316.439 518.852 223.692 474.93 192.753 414.434C189.223 415.217 185.543 415.632 181.76 415.632C155.259 415.632 133.776 395.298 133.776 370.214C133.776 353.157 143.711 338.295 158.404 330.531C156.58 325.732 155.587 320.557 155.587 315.163C155.587 290.08 177.07 269.746 203.571 269.746C203.835 269.746 204.099 269.748 204.362 269.752C208.462 248.609 228.032 232.587 251.556 232.587C260.258 232.587 268.419 234.779 275.455 238.612C275.038 236.203 274.822 233.731 274.822 231.211C274.822 206.127 296.305 185.793 322.806 185.793C333.092 185.793 342.622 188.857 350.434 194.072C356.494 190.026 363.589 187.275 371.27 186.245Z"/>
</mask>
<path fill-rule="evenodd" clip-rule="evenodd" d="M371.27 186.245C374.574 159.538 394.584 139 418.776 139C434.783 139 448.96 147.993 457.678 161.815C466.351 153.668 478.294 148.634 491.48 148.634C498.473 148.634 505.118 150.05 511.11 152.596C517.102 150.05 523.746 148.634 530.74 148.634C554.771 148.634 574.675 165.353 578.178 187.173C578.36 187.171 578.542 187.17 578.725 187.17C605.226 187.17 626.709 207.504 626.709 232.587C626.709 234.613 626.569 236.608 626.297 238.563C634.975 229.766 646.94 224.329 660.153 224.329C686.654 224.329 708.138 246.203 708.138 273.187C708.138 278.234 707.386 283.102 705.991 287.682C706.702 287.653 707.418 287.638 708.138 287.638C734.639 287.638 756.123 307.972 756.123 333.055C756.123 348.217 748.273 361.644 736.21 369.893C734.497 377.671 730.683 384.719 725.354 390.48C726.454 392.793 727.041 395.227 727.041 397.74C727.041 412.942 705.557 425.265 679.056 425.265C670.415 425.265 662.306 423.955 655.303 421.662C620.901 478.397 531.238 518.852 426.046 518.852C316.439 518.852 223.692 474.93 192.753 414.434C189.223 415.217 185.543 415.632 181.76 415.632C155.259 415.632 133.776 395.298 133.776 370.214C133.776 353.157 143.711 338.295 158.404 330.531C156.58 325.732 155.587 320.557 155.587 315.163C155.587 290.08 177.07 269.746 203.571 269.746C203.835 269.746 204.099 269.748 204.362 269.752C208.462 248.609 228.032 232.587 251.556 232.587C260.258 232.587 268.419 234.779 275.455 238.612C275.038 236.203 274.822 233.731 274.822 231.211C274.822 206.127 296.305 185.793 322.806 185.793C333.092 185.793 342.622 188.857 350.434 194.072C356.494 190.026 363.589 187.275 371.27 186.245Z" fill="#8F9DD6"/>
<path d="M371.27 186.245L374.247 186.613L373.963 188.911L371.668 189.218L371.27 186.245ZM457.678 161.815L459.732 164.002L457.081 166.492L455.14 163.416L457.678 161.815ZM511.11 152.596L512.283 155.357L511.11 155.856L509.937 155.357L511.11 152.596ZM578.178 187.173L578.209 190.172L575.625 190.2L575.216 187.648L578.178 187.173ZM626.297 238.563L628.433 240.67L622.082 247.109L623.326 238.151L626.297 238.563ZM705.991 287.682L706.116 290.68L701.887 290.856L703.121 286.808L705.991 287.682ZM736.21 369.893L733.28 369.248L733.535 368.088L734.516 367.417L736.21 369.893ZM725.354 390.48L722.645 391.768L721.773 389.934L723.152 388.443L725.354 390.48ZM655.303 421.662L652.738 420.106L653.973 418.069L656.236 418.811L655.303 421.662ZM192.753 414.434L192.103 411.505L194.368 411.003L195.424 413.068L192.753 414.434ZM158.404 330.531L161.208 329.466L162.15 331.945L159.805 333.184L158.404 330.531ZM204.362 269.752L207.307 270.323L206.828 272.79L204.316 272.752L204.362 269.752ZM275.455 238.612L278.411 238.1L279.47 244.215L274.02 241.246L275.455 238.612ZM350.434 194.072L352.1 196.567L350.434 197.679L348.768 196.567L350.434 194.072ZM418.776 142C396.425 142 377.408 161.061 374.247 186.613L368.292 185.877C371.739 158.015 392.743 136 418.776 136V142ZM455.14 163.416C446.882 150.322 433.595 142 418.776 142V136C435.972 136 451.038 145.664 460.215 160.215L455.14 163.416ZM491.48 151.634C479.065 151.634 467.854 156.371 459.732 164.002L455.624 159.629C464.847 150.964 477.523 145.634 491.48 145.634V151.634ZM509.937 155.357C504.312 152.967 498.066 151.634 491.48 151.634V145.634C498.881 145.634 505.924 147.133 512.283 149.835L509.937 155.357ZM530.74 151.634C524.153 151.634 517.908 152.967 512.283 155.357L509.937 149.835C516.296 147.133 523.339 145.634 530.74 145.634V151.634ZM575.216 187.648C571.962 167.379 553.396 151.634 530.74 151.634V145.634C556.145 145.634 577.389 163.327 581.14 186.697L575.216 187.648ZM578.725 190.17C578.553 190.17 578.381 190.171 578.209 190.172L578.146 184.173C578.339 184.171 578.531 184.17 578.725 184.17V190.17ZM623.709 232.587C623.709 209.314 603.727 190.17 578.725 190.17V184.17C606.725 184.17 629.709 205.693 629.709 232.587H623.709ZM623.326 238.151C623.579 236.331 623.709 234.474 623.709 232.587H629.709C629.709 234.751 629.559 236.884 629.269 238.976L623.326 238.151ZM660.153 227.329C647.784 227.329 636.576 232.415 628.433 240.67L624.162 236.457C633.374 227.117 646.097 221.329 660.153 221.329V227.329ZM705.138 273.187C705.138 247.809 684.947 227.329 660.153 227.329V221.329C688.362 221.329 711.138 244.598 711.138 273.187H705.138ZM703.121 286.808C704.431 282.509 705.138 277.935 705.138 273.187H711.138C711.138 278.533 710.341 283.696 708.86 288.557L703.121 286.808ZM708.138 290.638C707.46 290.638 706.786 290.652 706.116 290.68L705.866 284.685C706.619 284.654 707.377 284.638 708.138 284.638V290.638ZM753.123 333.055C753.123 309.782 733.14 290.638 708.138 290.638V284.638C736.138 284.638 759.123 306.162 759.123 333.055H753.123ZM734.516 367.417C745.834 359.677 753.123 347.142 753.123 333.055H759.123C759.123 349.293 750.711 363.611 737.903 372.37L734.516 367.417ZM723.152 388.443C728.137 383.053 731.688 376.48 733.28 369.248L739.139 370.538C737.307 378.862 733.229 386.384 727.557 392.517L723.152 388.443ZM724.041 397.74C724.041 395.707 723.568 393.711 722.645 391.768L728.064 389.192C729.339 391.876 730.041 394.747 730.041 397.74H724.041ZM679.056 422.265C691.88 422.265 703.342 419.277 711.494 414.601C719.729 409.877 724.041 403.805 724.041 397.74H730.041C730.041 406.876 723.611 414.567 714.479 419.806C705.264 425.092 692.734 428.265 679.056 428.265V422.265ZM656.236 418.811C662.919 420.999 670.71 422.265 679.056 422.265V428.265C670.119 428.265 661.694 426.911 654.369 424.513L656.236 418.811ZM426.046 515.852C530.718 515.852 619.107 475.57 652.738 420.106L657.868 423.217C622.696 481.223 531.759 521.852 426.046 521.852V515.852ZM195.424 413.068C210.488 442.522 240.775 468.233 281.142 486.598C321.468 504.946 371.627 515.852 426.046 515.852V521.852C370.858 521.852 319.84 510.797 278.657 492.06C237.513 473.34 205.958 446.842 190.082 415.8L195.424 413.068ZM181.76 412.632C185.323 412.632 188.786 412.241 192.103 411.505L193.403 417.363C189.66 418.193 185.762 418.632 181.76 418.632V412.632ZM136.776 370.214C136.776 393.487 156.758 412.632 181.76 412.632V418.632C153.76 418.632 130.776 397.108 130.776 370.214H136.776ZM159.805 333.184C146.002 340.478 136.776 354.372 136.776 370.214H130.776C130.776 351.942 141.421 336.112 157.002 327.879L159.805 333.184ZM158.587 315.163C158.587 320.186 159.511 324.999 161.208 329.466L155.599 331.597C153.649 326.464 152.587 320.929 152.587 315.163H158.587ZM203.571 272.746C178.57 272.746 158.587 291.89 158.587 315.163H152.587C152.587 288.27 175.571 266.746 203.571 266.746V272.746ZM204.316 272.752C204.068 272.748 203.82 272.746 203.571 272.746V266.746C203.851 266.746 204.129 266.748 204.407 266.752L204.316 272.752ZM251.556 235.587C229.38 235.587 211.117 250.675 207.307 270.323L201.416 269.181C205.807 246.542 226.684 229.587 251.556 229.587V235.587ZM274.02 241.246C267.418 237.65 259.75 235.587 251.556 235.587V229.587C260.766 229.587 269.419 231.908 276.89 235.977L274.02 241.246ZM277.822 231.211C277.822 233.558 278.024 235.859 278.411 238.1L272.499 239.124C272.053 236.547 271.822 233.903 271.822 231.211H277.822ZM322.806 188.793C297.804 188.793 277.822 207.938 277.822 231.211H271.822C271.822 204.317 294.806 182.793 322.806 182.793V188.793ZM348.768 196.567C341.443 191.677 332.491 188.793 322.806 188.793V182.793C333.693 182.793 343.802 186.037 352.1 191.577L348.768 196.567ZM371.668 189.218C364.446 190.187 357.783 192.772 352.1 196.567L348.768 191.577C355.205 187.279 362.733 184.363 370.871 183.272L371.668 189.218Z" fill="black" mask="url(#path-11-inside-6_425_2215)"/>
<mask id="path-13-inside-7_425_2215" fill="white">
<path fill-rule="evenodd" clip-rule="evenodd" d="M237.494 301.852C240.798 275.145 260.808 254.607 285 254.607C301.008 254.607 315.184 263.6 323.902 277.422C332.575 269.275 344.518 264.241 357.704 264.241C364.697 264.241 371.342 265.657 377.334 268.203C383.326 265.657 389.97 264.241 396.964 264.241C420.995 264.241 440.9 280.961 444.402 302.78C444.584 302.778 444.766 302.777 444.949 302.777C471.45 302.777 492.933 323.111 492.933 348.194C492.933 349.829 492.842 351.444 492.664 353.034C501.33 344.935 513.237 339.936 526.377 339.936C552.878 339.936 574.362 360.27 574.362 385.353C574.362 391.764 572.958 397.865 570.426 403.395C571.724 403.296 573.037 403.245 574.362 403.245C600.863 403.245 622.347 423.579 622.347 448.662C622.347 463.824 614.497 477.251 602.434 485.5C600.721 493.278 596.907 500.326 591.579 506.088C592.678 508.4 593.265 510.834 593.265 513.347C593.265 528.549 571.782 540.872 545.28 540.872C536.639 540.872 528.531 539.562 521.527 537.269C487.125 594.004 397.462 634.459 292.27 634.459C182.663 634.459 89.9164 590.537 58.977 530.041C55.4469 530.824 51.7668 531.238 47.9845 531.238C21.4833 531.238 -0.000203035 510.905 -0.000203035 485.821C-0.000203035 468.764 9.93522 453.902 24.6275 446.138C22.8044 441.339 21.811 436.165 21.811 430.771C21.811 405.687 43.2944 385.354 69.7956 385.354C70.0595 385.354 70.3228 385.356 70.5856 385.36C74.6857 364.216 94.2561 348.194 117.78 348.194C126.482 348.194 134.643 350.386 141.68 354.219C141.263 351.81 141.046 349.338 141.046 346.818C141.046 321.735 162.529 301.401 189.03 301.401C199.316 301.401 208.846 304.464 216.658 309.679C222.718 305.633 229.814 302.882 237.494 301.852ZM530.205 430.857C530.241 430.778 530.277 430.699 530.313 430.62C529.015 430.719 527.702 430.77 526.377 430.77C523.831 430.77 521.33 430.582 518.891 430.221C519.075 430.499 519.258 430.777 519.44 431.056C521.705 430.868 524.021 430.771 526.377 430.771C527.666 430.771 528.942 430.8 530.205 430.857Z"/>
</mask>
<path fill-rule="evenodd" clip-rule="evenodd" d="M237.494 301.852C240.798 275.145 260.808 254.607 285 254.607C301.008 254.607 315.184 263.6 323.902 277.422C332.575 269.275 344.518 264.241 357.704 264.241C364.697 264.241 371.342 265.657 377.334 268.203C383.326 265.657 389.97 264.241 396.964 264.241C420.995 264.241 440.9 280.961 444.402 302.78C444.584 302.778 444.766 302.777 444.949 302.777C471.45 302.777 492.933 323.111 492.933 348.194C492.933 349.829 492.842 351.444 492.664 353.034C501.33 344.935 513.237 339.936 526.377 339.936C552.878 339.936 574.362 360.27 574.362 385.353C574.362 391.764 572.958 397.865 570.426 403.395C571.724 403.296 573.037 403.245 574.362 403.245C600.863 403.245 622.347 423.579 622.347 448.662C622.347 463.824 614.497 477.251 602.434 485.5C600.721 493.278 596.907 500.326 591.579 506.088C592.678 508.4 593.265 510.834 593.265 513.347C593.265 528.549 571.782 540.872 545.28 540.872C536.639 540.872 528.531 539.562 521.527 537.269C487.125 594.004 397.462 634.459 292.27 634.459C182.663 634.459 89.9164 590.537 58.977 530.041C55.4469 530.824 51.7668 531.238 47.9845 531.238C21.4833 531.238 -0.000203035 510.905 -0.000203035 485.821C-0.000203035 468.764 9.93522 453.902 24.6275 446.138C22.8044 441.339 21.811 436.165 21.811 430.771C21.811 405.687 43.2944 385.354 69.7956 385.354C70.0595 385.354 70.3228 385.356 70.5856 385.36C74.6857 364.216 94.2561 348.194 117.78 348.194C126.482 348.194 134.643 350.386 141.68 354.219C141.263 351.81 141.046 349.338 141.046 346.818C141.046 321.735 162.529 301.401 189.03 301.401C199.316 301.401 208.846 304.464 216.658 309.679C222.718 305.633 229.814 302.882 237.494 301.852ZM530.205 430.857C530.241 430.778 530.277 430.699 530.313 430.62C529.015 430.719 527.702 430.77 526.377 430.77C523.831 430.77 521.33 430.582 518.891 430.221C519.075 430.499 519.258 430.777 519.44 431.056C521.705 430.868 524.021 430.771 526.377 430.771C527.666 430.771 528.942 430.8 530.205 430.857Z" fill="#8F9DD6"/>
<path d="M237.494 301.852L240.471 302.22L240.187 304.518L237.892 304.825L237.494 301.852ZM323.902 277.422L325.956 279.609L323.305 282.099L321.364 279.023L323.902 277.422ZM377.334 268.203L378.507 270.964L377.334 271.462L376.161 270.964L377.334 268.203ZM444.402 302.78L444.434 305.78L441.849 305.807L441.44 303.255L444.402 302.78ZM492.664 353.034L494.712 355.226L488.779 360.771L489.683 352.7L492.664 353.034ZM570.426 403.395L570.656 406.387L565.579 406.777L567.699 402.147L570.426 403.395ZM602.434 485.5L599.504 484.855L599.76 483.695L600.74 483.024L602.434 485.5ZM591.579 506.088L588.869 507.376L587.997 505.542L589.376 504.051L591.579 506.088ZM521.527 537.269L518.962 535.713L520.197 533.676L522.46 534.418L521.527 537.269ZM58.977 530.041L58.3273 527.112L60.5918 526.61L61.648 528.675L58.977 530.041ZM24.6275 446.138L27.432 445.073L28.3736 447.552L26.0291 448.791L24.6275 446.138ZM70.5856 385.36L73.5307 385.931L73.0524 388.398L70.5398 388.359L70.5856 385.36ZM141.68 354.219L144.636 353.707L145.694 359.822L140.245 356.854L141.68 354.219ZM216.658 309.679L218.324 312.174L216.658 313.286L214.992 312.174L216.658 309.679ZM530.313 430.62L530.083 427.628L535.16 427.238L533.04 431.869L530.313 430.62ZM530.205 430.857L532.94 432.09L532.103 433.946L530.069 433.854L530.205 430.857ZM518.891 430.221L516.391 431.879L512.667 426.265L519.331 427.253L518.891 430.221ZM519.44 431.056L519.688 434.046L517.904 434.194L516.927 432.694L519.44 431.056ZM285 257.607C262.649 257.607 243.633 276.668 240.471 302.22L234.516 301.484C237.964 273.622 258.967 251.607 285 251.607V257.607ZM321.364 279.023C313.106 265.929 299.819 257.607 285 257.607V251.607C302.196 251.607 317.263 261.271 326.439 275.822L321.364 279.023ZM357.704 267.241C345.289 267.241 334.079 271.978 325.956 279.609L321.848 275.236C331.071 266.571 343.747 261.241 357.704 261.241V267.241ZM376.161 270.964C370.536 268.574 364.29 267.241 357.704 267.241V261.241C365.105 261.241 372.148 262.74 378.507 265.442L376.161 270.964ZM396.964 267.241C390.378 267.241 384.132 268.574 378.507 270.964L376.161 265.442C382.52 262.74 389.563 261.241 396.964 261.241V267.241ZM441.44 303.255C438.186 282.987 419.621 267.241 396.964 267.241V261.241C422.369 261.241 443.613 278.935 447.364 302.304L441.44 303.255ZM444.949 305.777C444.777 305.777 444.605 305.778 444.434 305.78L444.37 299.78C444.563 299.778 444.756 299.777 444.949 299.777V305.777ZM489.933 348.194C489.933 324.921 469.951 305.777 444.949 305.777V299.777C472.949 299.777 495.933 321.301 495.933 348.194H489.933ZM489.683 352.7C489.848 351.221 489.933 349.717 489.933 348.194H495.933C495.933 349.941 495.836 351.667 495.645 353.368L489.683 352.7ZM526.377 342.936C514.005 342.936 502.829 347.641 494.712 355.226L490.616 350.842C499.831 342.23 512.468 336.936 526.377 336.936V342.936ZM571.362 385.353C571.362 362.08 551.379 342.936 526.377 342.936V336.936C554.378 336.936 577.362 358.46 577.362 385.353H571.362ZM567.699 402.147C570.056 396.997 571.362 391.321 571.362 385.353H577.362C577.362 392.207 575.861 398.733 573.154 404.644L567.699 402.147ZM574.362 406.245C573.114 406.245 571.878 406.293 570.656 406.387L570.197 400.404C571.571 400.299 572.96 400.245 574.362 400.245V406.245ZM619.347 448.662C619.347 425.389 599.364 406.245 574.362 406.245V400.245C602.362 400.245 625.347 421.769 625.347 448.662H619.347ZM600.74 483.024C612.058 475.284 619.347 462.749 619.347 448.662H625.347C625.347 464.9 616.935 479.218 604.127 487.977L600.74 483.024ZM589.376 504.051C594.361 498.66 597.912 492.087 599.504 484.855L605.364 486.145C603.531 494.469 599.453 501.992 593.781 508.124L589.376 504.051ZM590.265 513.347C590.265 511.314 589.793 509.318 588.869 507.376L594.288 504.8C595.564 507.483 596.265 510.355 596.265 513.347H590.265ZM545.28 537.872C558.104 537.872 569.566 534.884 577.718 530.208C585.953 525.484 590.265 519.412 590.265 513.347H596.265C596.265 522.483 589.835 530.174 580.703 535.413C571.489 540.698 558.958 543.872 545.28 543.872V537.872ZM522.46 534.418C529.143 536.606 536.934 537.872 545.28 537.872V543.872C536.343 543.872 527.918 542.518 520.593 540.12L522.46 534.418ZM292.27 631.459C396.942 631.459 485.331 591.177 518.962 535.713L524.092 538.824C488.92 596.83 397.983 637.459 292.27 637.459V631.459ZM61.648 528.675C76.7117 558.129 106.999 583.84 147.366 602.205C187.693 620.553 237.852 631.459 292.27 631.459V637.459C237.082 637.459 186.064 626.404 144.881 607.667C103.737 588.947 72.1817 562.449 56.3061 531.407L61.648 528.675ZM47.9845 528.238C51.5473 528.238 55.0096 527.848 58.3273 527.112L59.6268 532.97C55.8843 533.8 51.9863 534.238 47.9845 534.238V528.238ZM2.9998 485.821C2.9998 509.094 22.9825 528.238 47.9845 528.238V534.238C19.984 534.238 -3.0002 512.715 -3.0002 485.821H2.9998ZM26.0291 448.791C12.2255 456.085 2.9998 469.979 2.9998 485.821H-3.0002C-3.0002 467.549 7.6449 451.719 23.2259 443.486L26.0291 448.791ZM24.811 430.771C24.811 435.793 25.7354 440.607 27.432 445.073L21.8231 447.204C19.8733 442.071 18.811 436.536 18.811 430.771H24.811ZM69.7956 388.354C44.7937 388.354 24.811 407.498 24.811 430.771H18.811C18.811 403.877 41.7951 382.354 69.7956 382.354V388.354ZM70.5398 388.359C70.2923 388.355 70.0442 388.354 69.7956 388.354V382.354C70.0748 382.354 70.3533 382.356 70.6314 382.36L70.5398 388.359ZM117.78 351.194C95.6041 351.194 77.3408 366.283 73.5307 385.931L67.6405 384.788C72.0306 362.149 92.9082 345.194 117.78 345.194V351.194ZM140.245 356.854C133.642 353.257 125.974 351.194 117.78 351.194V345.194C126.99 345.194 135.643 347.515 143.115 351.584L140.245 356.854ZM144.046 346.818C144.046 349.166 144.248 351.467 144.636 353.707L138.724 354.731C138.277 352.154 138.046 349.511 138.046 346.818H144.046ZM189.03 304.401C164.028 304.401 144.046 323.545 144.046 346.818H138.046C138.046 319.924 161.03 298.401 189.03 298.401V304.401ZM214.992 312.174C207.667 307.284 198.715 304.401 189.03 304.401V298.401C199.917 298.401 210.026 301.644 218.324 307.184L214.992 312.174ZM237.892 304.825C230.67 305.794 224.007 308.379 218.324 312.174L214.992 307.184C221.429 302.886 228.957 299.97 237.095 298.879L237.892 304.825ZM533.04 431.869C533.007 431.942 532.973 432.016 532.94 432.09L527.47 429.624C527.508 429.54 527.546 429.455 527.585 429.371L533.04 431.869ZM526.377 427.77C527.626 427.77 528.861 427.722 530.083 427.628L530.543 433.611C529.168 433.716 527.779 433.77 526.377 433.77V427.77ZM519.331 427.253C521.625 427.593 523.978 427.77 526.377 427.77V433.77C523.683 433.77 521.036 433.572 518.451 433.188L519.331 427.253ZM516.927 432.694C516.75 432.422 516.571 432.15 516.391 431.879L521.391 428.562C521.58 428.847 521.767 429.132 521.953 429.418L516.927 432.694ZM526.377 433.771C524.104 433.771 521.871 433.864 519.688 434.046L519.192 428.066C521.54 427.871 523.939 427.771 526.377 427.771V433.771ZM530.069 433.854C528.852 433.799 527.62 433.771 526.377 433.771V427.771C527.711 427.771 529.033 427.801 530.341 427.86L530.069 433.854Z" fill="black" mask="url(#path-13-inside-7_425_2215)"/>
<mask id="path-15-inside-8_425_2215" fill="white">
<path fill-rule="evenodd" clip-rule="evenodd" d="M755.147 316.991C758.451 290.284 778.462 269.746 802.653 269.746C818.661 269.746 832.838 278.739 841.555 292.561C850.228 284.414 862.172 279.38 875.357 279.38C882.351 279.38 888.995 280.796 894.987 283.342C900.979 280.796 907.624 279.38 914.617 279.38C938.648 279.38 958.553 296.1 962.055 317.919C962.237 317.917 962.42 317.916 962.602 317.916C989.103 317.916 1010.59 338.25 1010.59 363.333C1010.59 365.359 1010.45 367.354 1010.18 369.309C1018.85 360.512 1030.82 355.075 1044.03 355.075C1070.53 355.075 1092.02 376.95 1092.02 403.933C1092.02 408.98 1091.26 413.849 1089.87 418.429C1090.58 418.399 1091.3 418.384 1092.02 418.384C1118.52 418.384 1140 438.718 1140 463.801C1140 478.963 1132.15 492.39 1120.09 500.639C1118.37 508.417 1114.56 515.465 1109.23 521.227C1110.33 523.539 1110.92 525.973 1110.92 528.486C1110.92 543.688 1089.43 556.011 1062.93 556.011C1054.29 556.011 1046.18 554.701 1039.18 552.408C1004.78 609.143 915.116 649.598 809.923 649.598C700.317 649.598 607.57 605.676 576.63 545.18C573.1 545.963 569.42 546.378 565.638 546.378C539.137 546.378 517.653 526.044 517.653 500.961C517.653 483.903 527.589 469.041 542.281 461.278C540.458 456.478 539.464 451.303 539.464 445.909C539.464 420.826 560.948 400.492 587.449 400.492C587.713 400.492 587.976 400.494 588.239 400.498C592.339 379.355 611.91 363.333 635.434 363.333C644.135 363.333 652.296 365.525 659.333 369.358C658.916 366.95 658.699 364.477 658.699 361.957C658.699 336.873 680.182 316.54 706.684 316.54C716.97 316.54 726.5 319.603 734.311 324.818C740.372 320.772 747.467 318.021 755.147 316.991Z"/>
</mask>
<path fill-rule="evenodd" clip-rule="evenodd" d="M755.147 316.991C758.451 290.284 778.462 269.746 802.653 269.746C818.661 269.746 832.838 278.739 841.555 292.561C850.228 284.414 862.172 279.38 875.357 279.38C882.351 279.38 888.995 280.796 894.987 283.342C900.979 280.796 907.624 279.38 914.617 279.38C938.648 279.38 958.553 296.1 962.055 317.919C962.237 317.917 962.42 317.916 962.602 317.916C989.103 317.916 1010.59 338.25 1010.59 363.333C1010.59 365.359 1010.45 367.354 1010.18 369.309C1018.85 360.512 1030.82 355.075 1044.03 355.075C1070.53 355.075 1092.02 376.95 1092.02 403.933C1092.02 408.98 1091.26 413.849 1089.87 418.429C1090.58 418.399 1091.3 418.384 1092.02 418.384C1118.52 418.384 1140 438.718 1140 463.801C1140 478.963 1132.15 492.39 1120.09 500.639C1118.37 508.417 1114.56 515.465 1109.23 521.227C1110.33 523.539 1110.92 525.973 1110.92 528.486C1110.92 543.688 1089.43 556.011 1062.93 556.011C1054.29 556.011 1046.18 554.701 1039.18 552.408C1004.78 609.143 915.116 649.598 809.923 649.598C700.317 649.598 607.57 605.676 576.63 545.18C573.1 545.963 569.42 546.378 565.638 546.378C539.137 546.378 517.653 526.044 517.653 500.961C517.653 483.903 527.589 469.041 542.281 461.278C540.458 456.478 539.464 451.303 539.464 445.909C539.464 420.826 560.948 400.492 587.449 400.492C587.713 400.492 587.976 400.494 588.239 400.498C592.339 379.355 611.91 363.333 635.434 363.333C644.135 363.333 652.296 365.525 659.333 369.358C658.916 366.95 658.699 364.477 658.699 361.957C658.699 336.873 680.182 316.54 706.684 316.54C716.97 316.54 726.5 319.603 734.311 324.818C740.372 320.772 747.467 318.021 755.147 316.991Z" fill="#8F9DD6"/>
<path d="M755.147 316.991L758.124 317.359L757.84 319.657L755.546 319.964L755.147 316.991ZM841.555 292.561L843.609 294.748L840.958 297.239L839.018 294.162L841.555 292.561ZM894.987 283.342L896.16 286.103L894.987 286.602L893.814 286.103L894.987 283.342ZM962.055 317.919L962.087 320.919L959.503 320.946L959.093 318.394L962.055 317.919ZM1010.18 369.309L1012.31 371.416L1005.96 377.855L1007.2 368.897L1010.18 369.309ZM1089.87 418.429L1089.99 421.426L1085.76 421.602L1087 417.554L1089.87 418.429ZM1120.09 500.639L1117.16 499.994L1117.41 498.834L1118.39 498.163L1120.09 500.639ZM1109.23 521.227L1106.52 522.515L1105.65 520.681L1107.03 519.19L1109.23 521.227ZM1039.18 552.408L1036.61 550.852L1037.85 548.816L1040.11 549.557L1039.18 552.408ZM576.63 545.18L575.981 542.252L578.245 541.749L579.301 543.814L576.63 545.18ZM542.281 461.278L545.086 460.212L546.027 462.691L543.683 463.93L542.281 461.278ZM588.239 400.498L591.184 401.069L590.706 403.536L588.193 403.498L588.239 400.498ZM659.333 369.358L662.289 368.846L663.348 374.961L657.898 371.993L659.333 369.358ZM734.311 324.818L735.977 327.313L734.311 328.425L732.645 327.313L734.311 324.818ZM802.653 272.746C780.303 272.746 761.286 291.807 758.124 317.359L752.17 316.623C755.617 288.761 776.621 266.746 802.653 266.746V272.746ZM839.018 294.162C830.76 281.068 817.473 272.746 802.653 272.746V266.746C819.849 266.746 834.916 276.41 844.093 290.961L839.018 294.162ZM875.357 282.38C862.943 282.38 851.732 287.117 843.609 294.748L839.501 290.375C848.725 281.71 861.401 276.38 875.357 276.38V282.38ZM893.814 286.103C888.189 283.713 881.944 282.38 875.357 282.38V276.38C882.758 276.38 889.801 277.879 896.16 280.581L893.814 286.103ZM914.617 282.38C908.031 282.38 901.785 283.713 896.16 286.103L893.814 280.581C900.173 277.879 907.216 276.38 914.617 276.38V282.38ZM959.093 318.394C955.84 298.126 937.274 282.38 914.617 282.38V276.38C940.022 276.38 961.266 294.074 965.017 317.443L959.093 318.394ZM962.602 320.916C962.43 320.916 962.258 320.917 962.087 320.919L962.024 314.919C962.216 314.917 962.409 314.916 962.602 314.916V320.916ZM1007.59 363.333C1007.59 340.06 987.604 320.916 962.602 320.916V314.916C990.603 314.916 1013.59 336.44 1013.59 363.333H1007.59ZM1007.2 368.897C1007.46 367.077 1007.59 365.22 1007.59 363.333H1013.59C1013.59 365.497 1013.44 367.63 1013.15 369.722L1007.2 368.897ZM1044.03 358.075C1031.66 358.075 1020.45 363.161 1012.31 371.416L1008.04 367.203C1017.25 357.864 1029.97 352.075 1044.03 352.075V358.075ZM1089.02 403.933C1089.02 378.555 1068.82 358.075 1044.03 358.075V352.075C1072.24 352.075 1095.02 375.344 1095.02 403.933H1089.02ZM1087 417.554C1088.31 413.255 1089.02 408.681 1089.02 403.933H1095.02C1095.02 409.279 1094.22 414.442 1092.74 419.303L1087 417.554ZM1092.02 421.384C1091.34 421.384 1090.66 421.398 1089.99 421.426L1089.74 415.431C1090.5 415.4 1091.25 415.384 1092.02 415.384V421.384ZM1137 463.801C1137 440.528 1117.02 421.384 1092.02 421.384V415.384C1120.02 415.384 1143 436.908 1143 463.801H1137ZM1118.39 498.163C1129.71 490.423 1137 477.888 1137 463.801H1143C1143 480.039 1134.59 494.357 1121.78 503.116L1118.39 498.163ZM1107.03 519.19C1112.01 513.799 1115.57 507.226 1117.16 499.994L1123.02 501.284C1121.18 509.608 1117.11 517.131 1111.43 523.264L1107.03 519.19ZM1107.92 528.486C1107.92 526.453 1107.45 524.457 1106.52 522.515L1111.94 519.939C1113.22 522.622 1113.92 525.494 1113.92 528.486H1107.92ZM1062.93 553.011C1075.76 553.011 1087.22 550.024 1095.37 545.347C1103.61 540.623 1107.92 534.552 1107.92 528.486H1113.92C1113.92 537.622 1107.49 545.313 1098.36 550.552C1089.14 555.838 1076.61 559.011 1062.93 559.011V553.011ZM1040.11 549.557C1046.8 551.745 1054.59 553.011 1062.93 553.011V559.011C1054 559.011 1045.57 557.657 1038.25 555.259L1040.11 549.557ZM809.923 646.598C914.595 646.598 1002.98 606.316 1036.61 550.852L1041.75 553.963C1006.57 611.97 915.636 652.598 809.923 652.598V646.598ZM579.301 543.814C594.365 573.268 624.652 598.979 665.019 617.345C705.346 635.692 755.505 646.598 809.923 646.598V652.598C754.735 652.598 703.717 641.543 662.534 622.806C621.391 604.087 589.835 577.588 573.959 546.546L579.301 543.814ZM565.638 543.378C569.201 543.378 572.663 542.987 575.981 542.252L577.28 548.109C573.538 548.939 569.64 549.378 565.638 549.378V543.378ZM520.653 500.961C520.653 524.234 540.636 543.378 565.638 543.378V549.378C537.637 549.378 514.653 527.854 514.653 500.961H520.653ZM543.683 463.93C529.879 471.224 520.653 485.118 520.653 500.961H514.653C514.653 482.688 525.298 466.858 540.879 458.625L543.683 463.93ZM542.464 445.909C542.464 450.932 543.389 455.746 545.086 460.212L539.477 462.343C537.527 457.21 536.464 451.675 536.464 445.909H542.464ZM587.449 403.492C562.447 403.492 542.464 422.636 542.464 445.909H536.464C536.464 419.016 559.448 397.492 587.449 397.492V403.492ZM588.193 403.498C587.946 403.494 587.698 403.492 587.449 403.492V397.492C587.728 397.492 588.007 397.494 588.285 397.499L588.193 403.498ZM635.434 366.333C613.258 366.333 594.994 381.422 591.184 401.069L585.294 399.927C589.684 377.288 610.562 360.333 635.434 360.333V366.333ZM657.898 371.993C651.296 368.397 643.628 366.333 635.434 366.333V360.333C644.643 360.333 653.296 362.654 660.768 366.724L657.898 371.993ZM661.699 361.957C661.699 364.305 661.901 366.606 662.289 368.846L656.377 369.87C655.931 367.293 655.699 364.65 655.699 361.957H661.699ZM706.684 319.54C681.682 319.54 661.699 338.684 661.699 361.957H655.699C655.699 335.063 678.683 313.54 706.684 313.54V319.54ZM732.645 327.313C725.32 322.423 716.369 319.54 706.684 319.54V313.54C717.571 313.54 727.679 316.783 735.977 322.323L732.645 327.313ZM755.546 319.964C748.323 320.933 741.661 323.518 735.977 327.313L732.645 322.323C739.083 318.025 746.611 315.109 754.748 314.018L755.546 319.964Z" fill="black" mask="url(#path-15-inside-8_425_2215)"/>
<mask id="path-17-inside-9_425_2215" fill="white">
<path fill-rule="evenodd" clip-rule="evenodd" d="M393.081 400.944C396.385 374.237 416.395 353.699 440.587 353.699C456.594 353.699 470.771 362.692 479.489 376.514C488.162 368.367 500.105 363.333 513.291 363.333C520.284 363.333 526.929 364.749 532.921 367.295C538.913 364.749 545.557 363.333 552.551 363.333C576.582 363.333 596.486 380.052 599.989 401.872C600.171 401.87 600.353 401.869 600.536 401.869C627.037 401.869 648.52 422.203 648.52 447.286C648.52 449.232 648.391 451.149 648.14 453.031C656.815 444.376 668.767 439.028 681.964 439.028C708.465 439.028 729.949 460.595 729.949 487.198C729.949 492.508 729.093 497.617 727.512 502.395C728.319 502.356 729.132 502.337 729.949 502.337C756.45 502.337 777.934 522.671 777.934 547.754C777.934 562.916 770.084 576.343 758.021 584.592C756.308 592.37 752.494 599.418 747.165 605.18C748.265 607.492 748.852 609.926 748.852 612.439C748.852 627.641 727.368 639.965 700.867 639.965C692.226 639.965 684.117 638.654 677.114 636.361C642.712 693.096 553.049 733.551 447.857 733.551C338.25 733.551 245.503 689.629 214.564 629.133C211.034 629.917 207.354 630.331 203.571 630.331C177.07 630.331 155.587 609.997 155.587 584.914C155.587 567.856 165.522 552.994 180.215 545.231C178.391 540.431 177.398 535.256 177.398 529.862C177.398 504.779 198.881 484.445 225.382 484.445C225.646 484.445 225.91 484.447 226.173 484.451C230.273 463.308 249.843 447.286 273.367 447.286C282.069 447.286 290.23 449.478 297.267 453.311C296.849 450.903 296.633 448.43 296.633 445.91C296.633 420.827 318.116 400.493 344.617 400.493C354.903 400.493 364.433 403.556 372.245 408.771C378.305 404.725 385.401 401.974 393.081 400.944Z"/>
</mask>
<path fill-rule="evenodd" clip-rule="evenodd" d="M393.081 400.944C396.385 374.237 416.395 353.699 440.587 353.699C456.594 353.699 470.771 362.692 479.489 376.514C488.162 368.367 500.105 363.333 513.291 363.333C520.284 363.333 526.929 364.749 532.921 367.295C538.913 364.749 545.557 363.333 552.551 363.333C576.582 363.333 596.486 380.052 599.989 401.872C600.171 401.87 600.353 401.869 600.536 401.869C627.037 401.869 648.52 422.203 648.52 447.286C648.52 449.232 648.391 451.149 648.14 453.031C656.815 444.376 668.767 439.028 681.964 439.028C708.465 439.028 729.949 460.595 729.949 487.198C729.949 492.508 729.093 497.617 727.512 502.395C728.319 502.356 729.132 502.337 729.949 502.337C756.45 502.337 777.934 522.671 777.934 547.754C777.934 562.916 770.084 576.343 758.021 584.592C756.308 592.37 752.494 599.418 747.165 605.18C748.265 607.492 748.852 609.926 748.852 612.439C748.852 627.641 727.368 639.965 700.867 639.965C692.226 639.965 684.117 638.654 677.114 636.361C642.712 693.096 553.049 733.551 447.857 733.551C338.25 733.551 245.503 689.629 214.564 629.133C211.034 629.917 207.354 630.331 203.571 630.331C177.07 630.331 155.587 609.997 155.587 584.914C155.587 567.856 165.522 552.994 180.215 545.231C178.391 540.431 177.398 535.256 177.398 529.862C177.398 504.779 198.881 484.445 225.382 484.445C225.646 484.445 225.91 484.447 226.173 484.451C230.273 463.308 249.843 447.286 273.367 447.286C282.069 447.286 290.23 449.478 297.267 453.311C296.849 450.903 296.633 448.43 296.633 445.91C296.633 420.827 318.116 400.493 344.617 400.493C354.903 400.493 364.433 403.556 372.245 408.771C378.305 404.725 385.401 401.974 393.081 400.944Z" fill="#8F9DD6"/>
<path d="M393.081 400.944L396.058 401.312L395.774 403.61L393.479 403.917L393.081 400.944ZM479.489 376.514L481.543 378.701L478.892 381.191L476.951 378.115L479.489 376.514ZM532.921 367.295L534.094 370.056L532.921 370.554L531.748 370.056L532.921 367.295ZM599.989 401.872L600.02 404.871L597.436 404.899L597.027 402.347L599.989 401.872ZM648.14 453.031L650.259 455.154L643.997 461.401L645.166 452.634L648.14 453.031ZM727.512 502.395L727.654 505.391L723.292 505.598L724.664 501.452L727.512 502.395ZM758.021 584.592L755.091 583.947L755.346 582.787L756.327 582.116L758.021 584.592ZM747.165 605.18L744.456 606.468L743.584 604.634L744.963 603.143L747.165 605.18ZM677.114 636.361L674.549 634.805L675.784 632.769L678.047 633.51L677.114 636.361ZM214.564 629.133L213.914 626.205L216.179 625.702L217.235 627.767L214.564 629.133ZM180.215 545.231L183.019 544.165L183.961 546.644L181.616 547.883L180.215 545.231ZM226.173 484.451L229.118 485.022L228.639 487.489L226.127 487.451L226.173 484.451ZM297.267 453.311L300.223 452.799L301.282 458.914L295.832 455.946L297.267 453.311ZM372.245 408.771L373.911 411.266L372.245 412.378L370.579 411.266L372.245 408.771ZM440.587 356.699C418.236 356.699 399.219 375.76 396.058 401.312L390.103 400.576C393.551 372.714 414.554 350.699 440.587 350.699V356.699ZM476.951 378.115C468.693 365.021 455.406 356.699 440.587 356.699V350.699C457.783 350.699 472.849 360.363 482.026 374.914L476.951 378.115ZM513.291 366.333C500.876 366.333 489.665 371.07 481.543 378.701L477.435 374.328C486.658 365.663 499.334 360.333 513.291 360.333V366.333ZM531.748 370.056C526.123 367.666 519.877 366.333 513.291 366.333V360.333C520.692 360.333 527.735 361.832 534.094 364.534L531.748 370.056ZM552.551 366.333C545.964 366.333 539.719 367.666 534.094 370.056L531.748 364.534C538.107 361.832 545.15 360.333 552.551 360.333V366.333ZM597.027 402.347C593.773 382.078 575.207 366.333 552.551 366.333V360.333C577.956 360.333 599.2 378.026 602.951 401.396L597.027 402.347ZM600.536 404.869C600.364 404.869 600.192 404.87 600.02 404.871L599.957 398.872C600.15 398.87 600.343 398.869 600.536 398.869V404.869ZM645.52 447.286C645.52 424.013 625.538 404.869 600.536 404.869V398.869C628.536 398.869 651.52 420.392 651.52 447.286H645.52ZM645.166 452.634C645.4 450.884 645.52 449.099 645.52 447.286H651.52C651.52 449.365 651.382 451.415 651.114 453.427L645.166 452.634ZM681.964 442.028C669.595 442.028 658.396 447.037 650.259 455.154L646.021 450.907C655.234 441.715 667.94 436.028 681.964 436.028V442.028ZM726.949 487.198C726.949 462.241 706.798 442.028 681.964 442.028V436.028C710.133 436.028 732.949 458.949 732.949 487.198H726.949ZM724.664 501.452C726.145 496.975 726.949 492.184 726.949 487.198H732.949C732.949 492.832 732.04 498.259 730.36 503.337L724.664 501.452ZM729.949 505.337C729.179 505.337 728.414 505.355 727.654 505.391L727.37 499.398C728.225 499.357 729.084 499.337 729.949 499.337V505.337ZM774.934 547.754C774.934 524.481 754.951 505.337 729.949 505.337V499.337C757.949 499.337 780.934 520.861 780.934 547.754H774.934ZM756.327 582.116C767.645 574.376 774.934 561.841 774.934 547.754H780.934C780.934 563.992 772.522 578.31 759.714 587.069L756.327 582.116ZM744.963 603.143C749.948 597.752 753.499 591.179 755.091 583.947L760.951 585.238C759.118 593.561 755.04 601.084 749.368 607.216L744.963 603.143ZM745.852 612.439C745.852 610.406 745.379 608.41 744.456 606.468L749.875 603.891C751.151 606.575 751.852 609.447 751.852 612.439H745.852ZM700.867 636.965C713.691 636.965 725.153 633.977 733.305 629.3C741.54 624.576 745.852 618.505 745.852 612.439H751.852C751.852 621.575 745.422 629.266 736.29 634.505C727.075 639.791 714.545 642.965 700.867 642.965V636.965ZM678.047 633.51C684.73 635.698 692.521 636.965 700.867 636.965V642.965C691.93 642.965 683.505 641.61 676.18 639.212L678.047 633.51ZM447.857 730.551C552.529 730.551 640.918 690.27 674.549 634.805L679.679 637.916C644.507 695.923 553.57 736.551 447.857 736.551V730.551ZM217.235 627.767C232.299 657.222 262.586 682.932 302.953 701.298C343.279 719.645 393.438 730.551 447.857 730.551V736.551C392.669 736.551 341.651 725.496 300.468 706.759C259.324 688.04 227.769 661.541 211.893 630.499L217.235 627.767ZM203.571 627.331C207.134 627.331 210.597 626.941 213.914 626.205L215.214 632.062C211.471 632.892 207.573 633.331 203.571 633.331V627.331ZM158.587 584.914C158.587 608.187 178.569 627.331 203.571 627.331V633.331C175.571 633.331 152.587 611.807 152.587 584.914H158.587ZM181.616 547.883C167.813 555.177 158.587 569.071 158.587 584.914H152.587C152.587 566.641 163.232 550.812 178.813 542.578L181.616 547.883ZM180.398 529.862C180.398 534.885 181.322 539.699 183.019 544.165L177.41 546.296C175.46 541.163 174.398 535.628 174.398 529.862H180.398ZM225.382 487.445C200.381 487.445 180.398 506.589 180.398 529.862H174.398C174.398 502.969 197.382 481.445 225.382 481.445V487.445ZM226.127 487.451C225.879 487.447 225.631 487.445 225.382 487.445V481.445C225.662 481.445 225.94 481.447 226.218 481.452L226.127 487.451ZM273.367 450.286C251.191 450.286 232.928 465.375 229.118 485.022L223.228 483.88C227.618 461.241 248.495 444.286 273.367 444.286V450.286ZM295.832 455.946C289.229 452.35 281.561 450.286 273.367 450.286V444.286C282.577 444.286 291.23 446.607 298.702 450.677L295.832 455.946ZM299.633 445.91C299.633 448.258 299.835 450.559 300.223 452.799L294.311 453.823C293.864 451.246 293.633 448.603 293.633 445.91H299.633ZM344.617 403.493C319.615 403.493 299.633 422.637 299.633 445.91H293.633C293.633 419.016 316.617 397.493 344.617 397.493V403.493ZM370.579 411.266C363.254 406.376 354.302 403.493 344.617 403.493V397.493C355.504 397.493 365.613 400.736 373.911 406.276L370.579 411.266ZM393.479 403.917C386.257 404.886 379.594 407.471 373.911 411.266L370.579 406.276C377.016 401.978 384.544 399.062 392.682 397.971L393.479 403.917Z" fill="black" mask="url(#path-17-inside-9_425_2215)"/>
</svg>
