<svg width="518" height="451" viewBox="0 0 518 451" fill="none" xmlns="http://www.w3.org/2000/svg">
<path d="M48.5671 139.134L54.6477 39.3917L124.369 56.1813C164.481 65.8405 206.344 65.5612 246.323 55.3675L271.865 48.855C297.031 42.4382 323.431 42.648 348.492 49.464L380.169 58.0793C408.735 65.8484 439.218 59.3891 462.14 40.8778L458.436 112.916L458.434 112.955V112.993V219.93C451.94 270.307 450.595 321.214 454.418 371.864L458.285 423.087L439.124 418.754C402.796 410.537 364.803 413.974 330.54 428.577C298.84 442.087 263.845 445.893 229.982 439.516L177.38 429.609C155.796 425.544 133.88 423.498 111.917 423.498H54.6677L48.5664 326.85L54.7569 220.113L54.7627 220.012L54.755 219.912L48.5671 139.134Z" fill="white" stroke="black" stroke-width="3"/>
<path d="M404.546 56.3755L407.556 56.8438L406.085 54.1658L401.778 46.3264L412.268 48.4038L415.455 49.035L413.861 46.1932L409.716 38.8045L419.3 40.9606L422.167 41.6055L421 38.8986L417.505 30.7913L427.881 30.1921L430.473 30.0424L429.043 27.8656L423.045 18.7328L431.653 20.4323L434.388 20.9722L433.325 18.386L431.004 12.7378C431.079 12.7775 431.155 12.8178 431.232 12.8589C433.62 14.1265 437.019 16.0529 441.045 18.6774C449.099 23.9286 459.638 31.9618 469.583 43.0871C479.747 54.4565 490.505 62.6545 498.72 68.0108C500.756 69.3385 502.637 70.4924 504.316 71.4775L502.674 71.1949L499.93 70.7225L501.053 73.2807L504.409 80.9277L496.523 79.382L494.105 78.9081L494.802 81.2805L497.816 91.5448L489.386 91.1026L487.264 90.9913L487.875 93.0343L489.785 99.4165L480.463 96.9414L476.659 95.9313L478.834 99.2239L485.586 109.443L476.178 107.62L473.287 107.06L474.541 109.735L476.937 114.844C476.713 114.72 476.48 114.59 476.24 114.455C473.356 112.836 469.366 110.49 464.946 107.585C456.075 101.753 445.597 93.7482 438.803 84.9182C431.697 75.6833 420.879 67.4572 411.929 61.5735C408.71 59.458 405.718 57.635 403.201 56.1662L404.546 56.3755Z" fill="#8F9DD6" stroke="black" stroke-width="3"/>
<path d="M112.509 50.2368L109.5 50.7051L110.971 48.0272L115.277 40.1877L104.788 42.2651L101.601 42.8963L103.195 40.0545L107.34 32.6658L97.7553 34.8219L94.8884 35.4668L96.0553 32.7599L99.5502 24.6526L89.1746 24.0534L86.5827 23.9037L88.0124 21.7269L94.0105 12.5942L85.4022 14.2937L82.6679 14.8335L83.7307 12.2473L86.052 6.59914C85.9768 6.6388 85.9006 6.67914 85.8233 6.72018C83.4358 7.98778 80.0361 9.91419 76.0107 12.5387C67.9567 17.79 57.418 25.8232 47.4726 36.9484C37.3088 48.3178 26.551 56.5158 18.3359 61.8721C16.2995 63.1999 14.4181 64.3538 12.7392 65.3388L14.3811 65.0562L17.1255 64.5839L16.0027 67.1421L12.6463 74.789L20.5323 73.2433L22.9506 72.7694L22.2539 75.1418L19.2396 85.4062L27.6698 84.964L29.7915 84.8527L29.1802 86.8956L27.2705 93.2779L36.5925 90.8028L40.3968 89.7926L38.2214 93.0852L31.4695 103.304L40.878 101.482L43.769 100.922L42.5147 103.596L40.1186 108.705C40.3428 108.581 40.5751 108.451 40.8152 108.316C43.6991 106.697 47.6892 104.351 52.1092 101.446C60.9801 95.6147 71.4588 87.6095 78.2527 78.7795C85.3583 69.5446 96.1761 61.3186 105.127 55.4349C108.345 53.3193 111.338 51.4963 113.854 50.0276L112.509 50.2368Z" fill="#8F9DD6" stroke="black" stroke-width="3"/>
</svg>
