<svg width="98" height="94" viewBox="0 0 98 94" fill="none" xmlns="http://www.w3.org/2000/svg">
<path fill-rule="evenodd" clip-rule="evenodd" d="M34.3995 34.2289C34.3635 34.1057 34.3448 33.9773 34.3448 33.847C34.3448 33.5793 34.3578 33.2885 34.3744 32.9835C34.5001 30.4781 34.7331 25.8166 27.8335 16.4492C27.7214 16.2971 27.6417 16.1252 27.5989 15.9435C27.5561 15.7618 27.5511 15.5738 27.584 15.3902C27.617 15.2066 27.6873 15.0311 27.791 14.8736C27.8947 14.7161 28.0298 14.5797 28.1884 14.4722C28.3471 14.3648 28.5263 14.2883 28.7157 14.2473C28.9052 14.2062 29.1012 14.2014 29.2926 14.233C29.484 14.2646 29.6671 14.3321 29.8313 14.4315C29.9956 14.531 30.1378 14.6605 30.2498 14.8127C37.7335 24.9727 37.4603 30.4706 37.329 33.1142L37.3288 33.1183C37.314 33.402 37.3029 33.6502 37.3029 33.847C37.3029 34.0835 37.2413 34.3139 37.1267 34.5184C39.5925 34.9499 44.1509 34.6366 47.4434 32.7636C47.7358 32.6231 48.0728 32.594 48.3867 32.6821C48.7006 32.7702 48.9681 32.9691 49.1353 33.2386C49.3026 33.5082 49.3572 33.8285 49.2882 34.1351C49.2192 34.4418 49.0317 34.7119 48.7634 34.8914C46.0272 36.4606 42.3981 37.1822 39.3513 37.1822C37.375 37.1822 35.6538 36.879 34.563 36.2957C34.2629 36.1356 34.0414 35.8677 33.9473 35.5509C33.8532 35.2342 33.8941 34.8946 34.0611 34.6068C34.1469 34.4588 34.2625 34.3307 34.3995 34.2289Z" fill="#E5B632"/>
<path d="M54.0897 23.1338C50.8266 23.1338 42.9971 21.5114 42.9971 17.4989C42.9971 17.1462 43.1432 16.808 43.4032 16.5586C43.6632 16.3092 44.0159 16.1691 44.3836 16.1691C44.7514 16.1691 45.1041 16.3092 45.3641 16.5586C45.6241 16.808 45.7702 17.1462 45.7702 17.4989C45.7702 18.6284 50.418 20.4742 54.0897 20.4742C54.4574 20.4742 54.8101 20.6143 55.0701 20.8637C55.3302 21.1131 55.4763 21.4513 55.4763 21.804C55.4763 22.1567 55.3302 22.495 55.0701 22.7443C54.8101 22.9937 54.4574 23.1338 54.0897 23.1338Z" fill="#F54A39"/>
<path d="M59.2072 31.4249C58.9262 31.4254 58.6509 31.3491 58.4136 31.2049C58.1762 31.0608 57.9865 30.8548 57.8668 30.6111C55.5041 25.7989 56.5726 20.3785 58.0942 15.2364C58.2008 14.8743 58.4531 14.5677 58.7955 14.384C59.1379 14.2003 59.5423 14.1545 59.9199 14.2568C60.2974 14.3591 60.6171 14.601 60.8087 14.9294C61.0002 15.2577 61.048 15.6456 60.9413 16.0077C59.5825 20.6178 58.5952 25.4336 60.5438 29.4018C60.65 29.6179 60.6975 29.8562 60.682 30.0947C60.6666 30.3331 60.5885 30.5639 60.4552 30.7657C60.3219 30.9675 60.1376 31.1337 59.9194 31.249C59.7012 31.3642 59.4562 31.4247 59.2072 31.4249Z" fill="#E5B632"/>
<path d="M40.2646 18.8058C37.9491 18.8241 35.6355 18.6706 33.3447 18.3466C29.3661 17.7366 27.3546 16.593 27.1698 14.8518C27.1416 14.5046 27.1879 14.1555 27.3059 13.8261C27.4238 13.4968 27.6109 13.1941 27.8557 12.9368C30.089 10.4012 38.0239 9.00581 44.147 8.58026C48.5231 8.27706 52.6939 8.3799 55.8886 8.86928C59.8671 9.47923 61.886 10.6229 62.0616 12.3641C62.0896 12.7115 62.0428 13.0608 61.9241 13.3902C61.8055 13.7196 61.6176 14.0222 61.372 14.279C59.1424 16.8252 51.2038 18.2118 45.0862 18.6356C43.439 18.7491 41.8157 18.8058 40.2646 18.8058ZM30.3127 14.5734C30.8192 14.8677 32.0783 15.3394 34.6185 15.6567C37.4822 16.0114 41.1261 16.0663 44.881 15.8057C53.0489 15.2401 57.7984 13.5751 58.9317 12.6425C58.4233 12.3499 57.1642 11.8765 54.6259 11.5609C51.7584 11.2045 48.1145 11.1513 44.3633 11.4101C36.1936 11.9775 31.4441 13.6425 30.3127 14.5734Z" fill="#F54A39"/>
<path fill-rule="evenodd" clip-rule="evenodd" d="M35.9015 47.2428C35.9117 47.2378 35.9218 47.2326 35.9318 47.2274C44.9135 43.4767 51.4068 40.1045 56.1548 37.6326C59.4139 35.937 62.5215 34.3277 63.687 34.1528C63.8196 34.1866 63.9574 34.2039 64.0971 34.2034H64.1119C64.1179 34.2033 64.1241 34.2032 64.1304 34.2032C64.2085 34.2232 64.2879 34.2373 64.3677 34.2455C64.4713 34.2962 64.5681 34.4068 64.6147 34.6466C64.6739 34.9516 64.6 35.4641 64.1562 35.6236C63.8112 35.7476 63.5225 35.9839 63.3406 36.2913C63.1588 36.5987 63.0954 36.9576 63.1614 37.3053C63.2275 37.653 63.4189 37.9673 63.7021 38.1934C63.9853 38.4195 64.3424 38.5429 64.7109 38.5422C64.8984 38.5418 65.0843 38.5094 65.26 38.4464C67.0422 37.8046 68.0738 35.9747 67.704 34.0952C67.4157 32.6032 66.3183 31.5343 64.8726 31.2589C62.9647 30.6698 60.4258 31.9835 54.6572 34.9836C49.9392 37.4358 43.4796 40.7869 34.5703 44.5105C34.513 44.5343 34.4574 44.5613 34.4039 44.5912C29.2092 47.0705 26.0515 46.5829 24.8255 45.303C23.9491 44.3899 23.9029 42.9253 24.7108 41.6575C25.9384 39.7284 29.1941 38.1805 34.6535 39.6238C35.0539 39.7254 35.4798 39.6713 35.8388 39.4734C36.1978 39.2754 36.4609 38.9496 36.5707 38.5666C36.6806 38.1837 36.6284 37.7747 36.4255 37.4284C36.2227 37.0822 35.8855 36.8268 35.4873 36.7176C28.3474 34.8293 23.853 37.2194 22.0283 40.0866C20.4771 42.5122 20.6768 45.4289 22.5108 47.3421C23.2632 48.1258 24.9419 49.3812 27.9795 49.3812C29.9854 49.3812 32.5848 48.8333 35.9015 47.2428Z" fill="#028F4D"/>
<path fill-rule="evenodd" clip-rule="evenodd" d="M30.1282 60.1016C31.5676 58.5183 33.1136 54.975 32.766 50.1437C32.7415 49.8145 32.8543 49.4894 33.0797 49.2401C33.3051 48.9907 33.6245 48.8373 33.9677 48.8138C34.3109 48.7903 34.6498 48.8985 34.9099 49.1147C35.1699 49.3308 35.3298 49.6372 35.3543 49.9664C35.6904 54.626 34.475 58.2839 32.9875 60.5486C34.0266 60.981 35.4328 61.3022 36.8148 60.9721C37.148 60.8928 37.5003 60.9438 37.7943 61.1137C38.0884 61.2836 38.2999 61.5586 38.3826 61.8781C38.4652 62.1977 38.4121 62.5356 38.2349 62.8176C38.0577 63.0996 37.771 63.3025 37.4378 63.3817C36.8504 63.5198 36.2476 63.5888 35.6427 63.5874C33.743 63.5609 31.894 62.9951 30.3293 61.9615C30.0489 61.7715 29.8586 61.4824 29.8003 61.1579C29.7421 60.8333 29.8206 60.4999 30.0187 60.2309C30.0523 60.1853 30.0889 60.1421 30.1282 60.1016Z" fill="#F54A39"/>
<path fill-rule="evenodd" clip-rule="evenodd" d="M56.1406 65.2401C56.1988 65.1894 56.2617 65.1434 56.3287 65.1025C59.9505 62.8897 62.3668 58.597 62.7994 53.6181C63.2635 48.2136 61.3352 43.2276 57.5138 39.9385C57.3714 39.824 57.2545 39.6831 57.17 39.5244C57.0856 39.3656 57.0352 39.1922 57.022 39.0145C57.0088 38.8367 57.0329 38.6582 57.0931 38.4895C57.1532 38.3209 57.248 38.1656 57.372 38.0328C57.4959 37.9 57.6465 37.7925 57.8146 37.7166C57.9827 37.6407 58.165 37.598 58.3507 37.591C58.5364 37.584 58.7217 37.6129 58.8955 37.6759C59.0693 37.739 59.2281 37.8349 59.3625 37.9579C63.8366 41.8074 66.0958 47.5948 65.5615 53.8362C65.125 58.9296 62.8429 63.4426 59.3513 66.2663C59.3006 66.3202 59.2451 66.3705 59.1851 66.4164C55.4598 69.2622 50.9931 70.4857 46.7761 70.4857C42.7606 70.4857 38.9706 69.3775 36.2584 67.5086C35.9598 67.3026 35.7588 66.9913 35.6995 66.6432C35.6402 66.295 35.7275 65.9385 35.9423 65.6522C36.1571 65.3658 36.4816 65.1729 36.8447 65.1161C37.2077 65.0592 37.5794 65.143 37.878 65.349C40.1316 66.904 43.4742 67.8313 46.826 67.8313H46.8815C50.1763 67.849 53.3923 66.9425 56.1406 65.2401Z" fill="#F54A39"/>
<path d="M39.5547 53.7254C40.5696 53.7254 41.3923 52.9363 41.3923 51.9629C41.3923 50.9895 40.5696 50.2004 39.5547 50.2004C38.5397 50.2004 37.717 50.9895 37.717 51.9629C37.717 52.9363 38.5397 53.7254 39.5547 53.7254Z" fill="#3D2F90"/>
<path d="M26.2565 80.0809C25.8642 80.0901 25.4842 79.9494 25.2001 79.6899C24.916 79.4304 24.751 79.0732 24.7414 78.697C24.7318 78.3208 24.8785 77.9563 25.1491 77.6838C25.4197 77.4113 25.7921 77.2531 26.1844 77.2439C30.7638 77.0258 37.7337 73.7988 39.7451 70.9671C39.8516 70.807 39.9904 70.6691 40.1535 70.5614C40.3166 70.4537 40.5005 70.3786 40.6944 70.3403C40.8883 70.3021 41.0883 70.3016 41.2824 70.3389C41.4765 70.3761 41.6609 70.4504 41.8245 70.5572C41.9882 70.6641 42.1278 70.8013 42.2351 70.9609C42.3424 71.1204 42.4152 71.299 42.4492 71.4861C42.4832 71.6731 42.4777 71.8648 42.4331 72.0498C42.3884 72.2348 42.3055 72.4093 42.1892 72.5629C39.6841 76.0914 31.8361 79.8149 26.3304 80.0791L26.2565 80.0809Z" fill="#465DBB"/>
<path d="M76.7501 75.4495H76.6762C71.1705 75.1835 63.3243 71.4618 60.8174 67.9333C60.5967 67.6222 60.514 67.2398 60.5873 66.8702C60.6606 66.5006 60.884 66.1741 61.2084 65.9625C61.5327 65.7509 61.9315 65.6715 62.3168 65.7418C62.7022 65.8121 63.0427 66.0264 63.2633 66.3375C65.2729 69.1745 72.2446 72.3962 76.8241 72.6161C77.0183 72.6207 77.2097 72.662 77.3872 72.7376C77.5648 72.8132 77.7251 72.9216 77.859 73.0566C77.993 73.1916 78.0978 73.3506 78.1677 73.5245C78.2375 73.6984 78.271 73.8838 78.2661 74.07C78.2612 74.2563 78.2182 74.4398 78.1394 74.6102C78.0605 74.7805 77.9475 74.9342 77.8068 75.0627C77.666 75.1911 77.5002 75.2917 77.3189 75.3587C77.1376 75.4256 76.9443 75.4577 76.7501 75.4531V75.4495Z" fill="#465DBB"/>
<path fill-rule="evenodd" clip-rule="evenodd" d="M42.4845 87.3175C42.722 87.4834 43.0083 87.5727 43.3021 87.5724C43.5912 87.5722 43.873 87.4854 44.1082 87.3242C48.1526 84.548 50.6714 81.6867 51.9972 78.2908C54.5866 80.9531 58.0685 82.6731 62.9342 83.746C63.0367 83.7685 63.1415 83.7798 63.2466 83.7797C63.5872 83.7794 63.9158 83.6588 64.1697 83.441C64.4235 83.2233 64.5849 82.9235 64.6231 82.5989C64.6613 82.2743 64.5735 81.9475 64.3766 81.681C64.1797 81.4145 63.8874 81.2268 63.5554 81.1537C58.2724 79.9897 55.0064 78.1068 52.6902 74.8767C52.6553 74.7967 52.6122 74.7195 52.5609 74.6465C52.3555 74.3537 52.0372 74.1512 51.6761 74.0834C51.315 74.0157 50.9406 74.0884 50.6353 74.2854C50.4098 74.4309 50.2357 74.6355 50.1316 74.8721C50.0882 74.9648 50.056 75.0623 50.0357 75.1625C50.0276 75.2024 50.0215 75.2425 50.0172 75.2827C49.1886 79.1548 46.9301 82.1164 42.4942 85.161C42.2552 85.3249 42.0767 85.5574 41.9845 85.8249C41.8922 86.0924 41.8909 86.3811 41.9808 86.6494C42.0707 86.9177 42.2471 87.1516 42.4845 87.3175Z" fill="#F54A39"/>
<path d="M51.5587 84.0261C50.114 84.0209 48.6888 83.7052 47.3879 83.1023C47.056 82.9502 46.8006 82.6778 46.6781 82.3451C46.5555 82.0124 46.5757 81.6467 46.7344 81.3283C46.893 81.0099 47.177 80.7651 47.5239 80.6475C47.8707 80.53 48.2521 80.5494 48.5841 80.7015C51.213 81.9072 54.1969 81.4232 56.3674 79.4337C56.4997 79.3131 56.6555 79.2187 56.8259 79.1558C56.9963 79.093 57.1779 79.0629 57.3604 79.0673C57.5428 79.0718 57.7226 79.1106 57.8895 79.1817C58.0563 79.2528 58.2069 79.3547 58.3326 79.4816C58.4584 79.6085 58.5569 79.7579 58.6224 79.9213C58.688 80.0847 58.7193 80.2589 58.7147 80.4339C58.7101 80.609 58.6695 80.7814 58.5954 80.9414C58.5213 81.1014 58.415 81.2458 58.2827 81.3664C56.3655 83.12 53.9769 84.0261 51.5587 84.0261Z" fill="#E5B632"/>
<path d="M48.7301 93.9999C39.0922 93.9981 29.6712 91.2559 21.6579 86.1199C13.6447 80.9839 7.39908 73.6846 3.71056 65.1448C0.02205 56.605 -0.943743 47.2081 0.935271 38.142C2.81429 29.0759 7.45374 20.7475 14.2672 14.2098C18.7661 9.75836 24.1434 6.20969 30.086 3.77039C36.0285 1.33109 42.4177 0.049912 48.8815 0.00142952C55.3453 -0.047053 61.7546 1.13813 67.7362 3.48799C73.7178 5.83785 79.1523 9.30543 83.7233 13.6889C88.2943 18.0723 91.9104 23.284 94.3612 29.0206C96.812 34.7572 98.0484 40.904 97.9985 47.1033C97.9487 53.3026 96.6135 59.4304 94.0708 65.13C91.528 70.8297 87.8285 75.9873 83.1876 80.3026C78.6736 84.6572 73.3039 88.11 67.3893 90.4612C61.4747 92.8123 55.1326 94.0151 48.7301 93.9999ZM48.7301 3.52683C23.5887 3.52683 3.13571 23.1428 3.13571 47.2553C3.13571 71.3679 23.5887 90.9856 48.7301 90.9856C73.8716 90.9856 94.3264 71.3679 94.3264 47.2553C94.3264 23.1428 73.8716 3.52683 48.7301 3.52683Z" fill="#652699"/>
<path fill-rule="evenodd" clip-rule="evenodd" d="M51.2262 76.0227C50.9866 76.047 50.7315 76.047 50.4643 76.047H50.4642C47.3472 76.047 42.618 74.7119 40.0446 72.5239C39.7787 72.2876 39.62 71.9608 39.6022 71.6136C39.5845 71.2664 39.7093 70.9263 39.9498 70.6662C40.1902 70.4062 40.5274 70.2467 40.8889 70.2221C41.2504 70.1975 41.6077 70.3096 41.8841 70.5344C44.2305 72.5287 48.8207 73.541 50.9776 73.3734C56.9024 72.5718 59.6042 68.3845 60.6431 66.7743L60.6584 66.7506C60.7434 66.6177 60.8155 66.5059 60.8765 66.4155C60.9737 66.2658 61.1009 66.1361 61.2508 66.034C61.4008 65.9318 61.5704 65.8593 61.7498 65.8207C61.9292 65.782 62.1148 65.778 62.2959 65.8088C62.477 65.8396 62.6498 65.9046 62.8044 66.0001C62.959 66.0956 63.0923 66.2196 63.1965 66.3649C63.3006 66.5103 63.3736 66.674 63.4111 66.8467C63.4487 67.0193 63.45 67.1974 63.4151 67.3706C63.3802 67.5437 63.3097 67.7085 63.2078 67.8553C63.1703 67.9105 63.127 67.9788 63.0792 68.0541C63.0611 68.0827 63.0423 68.1123 63.0229 68.1425L63.0216 68.1446C61.9258 69.8542 58.5959 75.0492 51.3202 76.0133C51.289 76.0175 51.2576 76.0207 51.2262 76.0227Z" fill="#3D2F90"/>
<path fill-rule="evenodd" clip-rule="evenodd" d="M34.6905 27.8185C35.9587 28.1016 37.2581 28.2356 38.56 28.2174C39.1313 28.2174 39.728 28.1965 40.3397 28.1517C40.5938 28.6551 40.8014 29.4141 40.7859 30.6874C40.7825 30.9929 40.9055 31.2873 41.128 31.506C41.3505 31.7247 41.6543 31.8499 41.9729 31.8541H41.9876C42.3041 31.8541 42.6078 31.7344 42.8328 31.5209C43.0578 31.3075 43.1859 31.0175 43.1893 30.714C43.2048 29.4764 43.0374 28.5502 42.7979 27.8451C44.7281 27.5011 46.6731 26.8971 48.3419 25.9461C48.5125 25.8528 48.6621 25.7279 48.7818 25.5787C48.9016 25.4294 48.9891 25.2587 49.0394 25.0767C49.0896 24.8946 49.1016 24.7047 49.0745 24.5182C49.0475 24.3316 48.9819 24.1521 48.8818 23.9901C48.7816 23.8281 48.6488 23.6869 48.4911 23.5746C48.3334 23.4624 48.154 23.3814 47.9633 23.3363C47.7726 23.2913 47.5745 23.2831 47.3805 23.3123C47.1864 23.3415 47.0004 23.4074 46.8333 23.5063C43.0599 25.6517 37.4618 25.5826 35.4411 25.0737C35.2532 25.0264 35.0574 25.0151 34.865 25.0404C34.6725 25.0657 34.4871 25.1271 34.3194 25.2212C34.1517 25.3152 34.0049 25.44 33.8874 25.5884C33.77 25.7368 33.6842 25.9059 33.6349 26.0862C33.5856 26.2664 33.5738 26.4542 33.6002 26.6388C33.6266 26.8233 33.6906 27.0011 33.7886 27.162C33.8866 27.3229 34.0168 27.4636 34.1715 27.5763C34.3263 27.6889 34.5026 27.7712 34.6905 27.8185Z" fill="#028F4D"/>
</svg>
