<svg width="834" height="915" viewBox="0 0 834 915" fill="none" xmlns="http://www.w3.org/2000/svg">
<path fill-rule="evenodd" clip-rule="evenodd" d="M428.418 849.352L459.669 912.555L577.698 708.123L546.447 644.921L428.418 849.352ZM546.447 644.921L342.015 526.892L223.987 731.324L428.418 849.352L546.447 644.921Z" fill="#4B3AB6"/>
<path d="M459.669 912.555L458.772 912.998L459.601 914.673L460.535 913.055L459.669 912.555ZM428.418 849.352L427.552 848.852L427.285 849.316L427.522 849.795L428.418 849.352ZM577.698 708.123L578.564 708.623L578.831 708.16L578.594 707.68L577.698 708.123ZM546.447 644.921L547.344 644.477L546.515 642.802L545.581 644.421L546.447 644.921ZM342.015 526.892L342.515 526.026L341.649 525.526L341.149 526.392L342.015 526.892ZM546.447 644.921L547.313 645.421L547.813 644.555L546.947 644.055L546.447 644.921ZM223.987 731.324L223.121 730.824L222.621 731.69L223.487 732.19L223.987 731.324ZM428.418 849.352L427.918 850.218L428.784 850.718L429.284 849.852L428.418 849.352ZM460.565 912.112L429.315 848.909L427.522 849.795L458.772 912.998L460.565 912.112ZM576.832 707.623L458.803 912.055L460.535 913.055L578.564 708.623L576.832 707.623ZM545.551 645.364L576.801 708.567L578.594 707.68L547.344 644.477L545.551 645.364ZM429.284 849.852L547.313 645.421L545.581 644.421L427.552 848.852L429.284 849.852ZM341.515 527.758L545.947 645.787L546.947 644.055L342.515 526.026L341.515 527.758ZM224.853 731.824L342.881 527.392L341.149 526.392L223.121 730.824L224.853 731.824ZM428.918 848.486L224.487 730.458L223.487 732.19L427.918 850.218L428.918 848.486ZM545.581 644.421L427.552 848.852L429.284 849.852L547.313 645.421L545.581 644.421Z" fill="black"/>
<path d="M255.237 794.527L223.987 731.324L342.015 526.892L373.266 590.095L255.237 794.527Z" fill="#291C72" stroke="black" stroke-width="2"/>
<rect x="373.266" y="590.095" width="236.057" height="236.057" transform="rotate(30 373.266 590.095)" fill="#3D2F90" stroke="black" stroke-width="2"/>
<path fill-rule="evenodd" clip-rule="evenodd" d="M664.476 440.489L460.044 322.46L342.016 526.892L546.447 644.921L664.476 440.489ZM546.447 644.921L577.698 708.124L695.726 503.692L664.476 440.489L546.447 644.921Z" fill="#4B3AB6"/>
<path d="M460.044 322.46L460.544 321.594L459.678 321.094L459.178 321.96L460.044 322.46ZM664.476 440.489L665.342 440.989L665.842 440.123L664.976 439.623L664.476 440.489ZM342.016 526.892L341.149 526.392L340.649 527.258L341.516 527.758L342.016 526.892ZM546.447 644.921L545.947 645.787L546.813 646.287L547.313 645.421L546.447 644.921ZM577.698 708.124L576.801 708.567L577.629 710.242L578.564 708.624L577.698 708.124ZM546.447 644.921L545.581 644.421L545.313 644.884L545.551 645.364L546.447 644.921ZM695.726 503.692L696.592 504.192L696.86 503.729L696.623 503.249L695.726 503.692ZM664.476 440.489L665.372 440.046L664.544 438.371L663.61 439.989L664.476 440.489ZM459.544 323.326L663.976 441.355L664.976 439.623L460.544 321.594L459.544 323.326ZM342.882 527.392L460.91 322.96L459.178 321.96L341.149 526.392L342.882 527.392ZM546.947 644.055L342.516 526.026L341.516 527.758L545.947 645.787L546.947 644.055ZM663.61 439.989L545.581 644.421L547.313 645.421L665.342 440.989L663.61 439.989ZM578.594 707.681L547.344 644.478L545.551 645.364L576.801 708.567L578.594 707.681ZM694.86 503.192L576.832 707.624L578.564 708.624L696.592 504.192L694.86 503.192ZM663.579 440.932L694.83 504.135L696.623 503.249L665.372 440.046L663.579 440.932ZM547.313 645.421L665.342 440.989L663.61 439.989L545.581 644.421L547.313 645.421Z" fill="black"/>
<path d="M373.266 590.095L342.016 526.892L460.044 322.46L491.295 385.663L373.266 590.095Z" fill="#291C72" stroke="black" stroke-width="2"/>
<rect x="491.294" y="385.664" width="236.057" height="236.057" transform="rotate(30 491.294 385.664)" fill="#3D2F90" stroke="black" stroke-width="2"/>
<path fill-rule="evenodd" clip-rule="evenodd" d="M782.504 236.057L578.073 118.029L460.044 322.46L649.947 432.101L649.947 432.101L664.476 440.489L695.726 503.692L813.755 299.26L782.504 236.057L782.504 236.057Z" fill="#4B3AB6"/>
<path d="M578.073 118.029L578.573 117.163L577.707 116.663L577.207 117.529L578.073 118.029ZM782.504 236.057L783.504 236.036L783.492 235.473L783.004 235.191L782.504 236.057ZM460.044 322.46L459.178 321.96L458.678 322.826L459.544 323.326L460.044 322.46ZM649.947 432.101L650.813 432.601L651.313 431.735L650.447 431.235L649.947 432.101ZM649.947 432.101L649.081 431.601L648.581 432.467L649.447 432.967L649.947 432.101ZM664.476 440.489L665.372 440.046L665.238 439.775L664.976 439.623L664.476 440.489ZM695.726 503.692L694.83 504.135L695.658 505.81L696.592 504.192L695.726 503.692ZM813.755 299.26L814.621 299.76L814.888 299.297L814.651 298.817L813.755 299.26ZM782.504 236.057L781.505 236.079L781.509 236.301L781.608 236.501L782.504 236.057ZM577.573 118.895L782.004 236.923L783.004 235.191L578.573 117.163L577.573 118.895ZM460.91 322.96L578.939 118.529L577.207 117.529L459.178 321.96L460.91 322.96ZM650.447 431.235L460.544 321.594L459.544 323.326L649.447 432.967L650.447 431.235ZM650.813 432.601L650.813 432.601L649.081 431.601L649.081 431.601L650.813 432.601ZM664.976 439.623L650.447 431.235L649.447 432.967L663.976 441.355L664.976 439.623ZM696.622 503.249L665.372 440.046L663.579 440.932L694.83 504.135L696.622 503.249ZM812.889 298.76L694.86 503.192L696.592 504.192L814.621 299.76L812.889 298.76ZM781.608 236.501L812.858 299.704L814.651 298.817L783.401 235.614L781.608 236.501ZM781.505 236.079L781.505 236.079L783.504 236.036L783.504 236.036L781.505 236.079Z" fill="black"/>
<path d="M491.295 385.663L460.044 322.46L578.073 118.029L609.323 181.232L491.295 385.663Z" fill="#291C72" stroke="black" stroke-width="2"/>
<rect x="609.323" y="181.232" width="236.057" height="236.057" transform="rotate(30 609.323 181.232)" fill="#3D2F90" stroke="black" stroke-width="2"/>
<path fill-rule="evenodd" clip-rule="evenodd" d="M223.987 731.324L255.237 794.526L373.266 590.095L342.015 526.892L137.584 408.863L19.555 613.295L223.987 731.324Z" fill="#4B3AB6"/>
<path d="M255.237 794.526L254.341 794.97L255.169 796.645L256.103 795.026L255.237 794.526ZM223.987 731.324L224.883 730.88L224.749 730.609L224.487 730.457L223.987 731.324ZM373.266 590.095L374.132 590.595L374.4 590.131L374.162 589.652L373.266 590.095ZM342.015 526.892L342.912 526.449L342.778 526.177L342.515 526.026L342.015 526.892ZM137.584 408.863L138.084 407.997L137.218 407.497L136.718 408.363L137.584 408.863ZM19.555 613.295L18.689 612.795L18.189 613.661L19.055 614.161L19.555 613.295ZM256.134 794.083L224.883 730.88L223.09 731.767L254.341 794.97L256.134 794.083ZM372.4 589.595L254.371 794.026L256.103 795.026L374.132 590.595L372.4 589.595ZM341.119 527.335L372.37 590.538L374.162 589.652L342.912 526.449L341.119 527.335ZM137.084 409.729L341.515 527.758L342.515 526.026L138.084 407.997L137.084 409.729ZM20.421 613.795L138.45 409.363L136.718 408.363L18.689 612.795L20.421 613.795ZM224.487 730.457L20.055 612.429L19.055 614.161L223.487 732.19L224.487 730.457Z" fill="black"/>
<path d="M50.8055 676.498L19.5551 613.295L137.584 408.863L168.834 472.066L50.8055 676.498Z" fill="#291C72" stroke="black" stroke-width="2"/>
<rect x="168.834" y="472.066" width="236.057" height="236.057" transform="rotate(30 168.834 472.066)" fill="#3D2F90" stroke="black" stroke-width="2"/>
</svg>
