<svg width="775" height="857" viewBox="0 0 775 857" fill="none" xmlns="http://www.w3.org/2000/svg">
<path fill-rule="evenodd" clip-rule="evenodd" d="M713.546 267.124L772.4 238.024L582.035 128.116L523.181 157.217L516.817 168.241L413.274 347.582L603.639 457.489L713.546 267.124Z" fill="#F56355"/>
<path d="M772.4 238.024L772.843 238.92L774.518 238.092L772.9 237.158L772.4 238.024ZM713.546 267.124L713.103 266.227L712.832 266.362L712.68 266.624L713.546 267.124ZM582.035 128.116L582.535 127.25L582.072 126.983L581.592 127.22L582.035 128.116ZM523.181 157.217L522.738 156.32L522.467 156.454L522.315 156.717L523.181 157.217ZM516.817 168.241L515.951 167.741L515.951 167.741L516.817 168.241ZM413.274 347.582L412.408 347.082L411.908 347.948L412.774 348.448L413.274 347.582ZM603.639 457.489L603.139 458.355L604.005 458.855L604.505 457.989L603.639 457.489ZM771.957 237.127L713.103 266.227L713.989 268.02L772.843 238.92L771.957 237.127ZM581.535 128.982L771.9 238.89L772.9 237.158L582.535 127.25L581.535 128.982ZM523.625 158.113L582.478 129.013L581.592 127.22L522.738 156.32L523.625 158.113ZM517.683 168.741L524.047 157.717L522.315 156.717L515.951 167.741L517.683 168.741ZM414.14 348.082L517.683 168.741L515.951 167.741L412.408 347.082L414.14 348.082ZM604.139 456.623L413.774 346.716L412.774 348.448L603.139 458.355L604.139 456.623ZM712.68 266.624L602.773 456.989L604.505 457.989L714.412 267.624L712.68 266.624Z" fill="black"/>
<path d="M662.493 428.389L603.639 457.489L413.274 347.582L472.128 318.481L662.493 428.389Z" fill="#652699" stroke="black" stroke-width="2"/>
<rect x="472.128" y="318.481" width="219.814" height="219.814" transform="rotate(-60 472.128 318.481)" fill="#F54A39" stroke="black" stroke-width="2"/>
<path fill-rule="evenodd" clip-rule="evenodd" d="M603.639 457.489L662.493 428.389L472.128 318.481L413.274 347.582L303.367 537.946L493.732 647.854L603.639 457.489Z" fill="#9154C5"/>
<path d="M662.493 428.389L662.936 429.285L664.611 428.457L662.993 427.523L662.493 428.389ZM603.639 457.489L603.196 456.592L602.924 456.727L602.773 456.989L603.639 457.489ZM472.128 318.481L472.628 317.615L472.165 317.348L471.685 317.585L472.128 318.481ZM413.274 347.582L412.831 346.685L412.559 346.819L412.408 347.082L413.274 347.582ZM303.367 537.946L302.501 537.446L302.001 538.312L302.867 538.812L303.367 537.946ZM493.732 647.854L493.232 648.72L494.098 649.22L494.598 648.354L493.732 647.854ZM662.05 427.492L603.196 456.592L604.082 458.385L662.936 429.285L662.05 427.492ZM471.628 319.347L661.993 429.255L662.993 427.523L472.628 317.615L471.628 319.347ZM413.717 348.478L472.571 319.378L471.685 317.585L412.831 346.685L413.717 348.478ZM304.233 538.446L414.14 348.082L412.408 347.082L302.501 537.446L304.233 538.446ZM494.232 646.988L303.867 537.08L302.867 538.812L493.232 648.72L494.232 646.988ZM602.773 456.989L492.866 647.354L494.598 648.354L604.505 457.989L602.773 456.989Z" fill="black"/>
<path d="M552.586 618.753L493.732 647.854L303.367 537.946L362.221 508.846L552.586 618.753Z" fill="#CA3F31" stroke="black" stroke-width="2"/>
<rect x="362.221" y="508.846" width="219.814" height="219.814" transform="rotate(-60 362.221 508.846)" fill="#F54A39" stroke="black" stroke-width="2"/>
<path fill-rule="evenodd" clip-rule="evenodd" d="M223.073 237.392L112.812 428.368L303.013 538.18L413.11 347.486L413.274 347.582L472.128 318.481L281.764 208.574L223.261 237.5L223.073 237.392Z" fill="#F56355"/>
<path d="M112.812 428.368L111.946 427.868L111.446 428.734L112.312 429.234L112.812 428.368ZM223.073 237.392L223.573 236.526L222.707 236.026L222.207 236.892L223.073 237.392ZM303.013 538.18L302.513 539.047L303.379 539.547L303.879 538.68L303.013 538.18ZM413.11 347.486L413.61 346.62L412.744 346.12L412.244 346.986L413.11 347.486ZM413.274 347.582L412.774 348.448L413.238 348.715L413.718 348.478L413.274 347.582ZM472.128 318.481L472.572 319.378L474.247 318.55L472.628 317.615L472.128 318.481ZM281.764 208.574L282.264 207.708L281.8 207.441L281.32 207.678L281.764 208.574ZM223.261 237.5L222.761 238.367L223.225 238.634L223.704 238.397L223.261 237.5ZM113.678 428.868L223.939 237.892L222.207 236.892L111.946 427.868L113.678 428.868ZM303.513 537.314L113.312 427.502L112.312 429.234L302.513 539.047L303.513 537.314ZM412.244 346.986L302.147 537.68L303.879 538.68L413.976 347.986L412.244 346.986ZM413.774 346.716L413.61 346.62L412.61 348.353L412.774 348.448L413.774 346.716ZM471.685 317.585L412.831 346.685L413.718 348.478L472.572 319.378L471.685 317.585ZM281.264 209.44L471.628 319.347L472.628 317.615L282.264 207.708L281.264 209.44ZM223.704 238.397L282.207 209.471L281.32 207.678L222.818 236.604L223.704 238.397ZM222.573 238.258L222.761 238.367L223.761 236.634L223.573 236.526L222.573 238.258Z" fill="black"/>
<path fill-rule="evenodd" clip-rule="evenodd" d="M113.26 427.592L3 618.569L193.2 728.381L303.297 537.687L303.462 537.782L362.316 508.682L171.951 398.775L113.449 427.701L113.26 427.592Z" fill="#F56355"/>
<path d="M3 618.569L2.13397 618.069L1.63397 618.935L2.5 619.435L3 618.569ZM113.26 427.592L113.76 426.726L112.894 426.226L112.394 427.092L113.26 427.592ZM193.2 728.381L192.7 729.247L193.566 729.747L194.066 728.881L193.2 728.381ZM303.297 537.687L303.797 536.821L302.931 536.321L302.431 537.187L303.297 537.687ZM303.462 537.782L302.962 538.648L303.426 538.916L303.905 538.678L303.462 537.782ZM362.316 508.682L362.759 509.578L364.434 508.75L362.816 507.816L362.316 508.682ZM171.951 398.775L172.451 397.909L171.988 397.641L171.508 397.878L171.951 398.775ZM113.449 427.701L112.949 428.567L113.412 428.834L113.892 428.597L113.449 427.701ZM3.86603 619.069L114.126 428.092L112.394 427.092L2.13397 618.069L3.86603 619.069ZM193.7 727.515L3.5 617.703L2.5 619.435L192.7 729.247L193.7 727.515ZM302.431 537.187L192.334 727.881L194.066 728.881L304.163 538.187L302.431 537.187ZM303.962 536.916L303.797 536.821L302.797 538.553L302.962 538.648L303.962 536.916ZM361.873 507.785L303.019 536.886L303.905 538.678L362.759 509.578L361.873 507.785ZM171.451 399.641L361.816 509.548L362.816 507.816L172.451 397.909L171.451 399.641ZM113.892 428.597L172.394 399.671L171.508 397.878L113.006 426.804L113.892 428.597ZM112.76 428.458L112.949 428.567L113.949 426.835L113.76 426.726L112.76 428.458Z" fill="black"/>
<rect x="171.856" y="398.939" width="219.814" height="219.814" transform="rotate(-60 171.856 398.939)" fill="#F54A39" stroke="black" stroke-width="2"/>
<path d="M252.314 699.211L193.46 728.311L3.09497 618.404L61.9489 589.304L252.314 699.211Z" fill="#CA3F31" stroke="black" stroke-width="2"/>
<rect x="61.949" y="589.304" width="219.814" height="219.814" transform="rotate(-60 61.949 589.304)" fill="#F54A39" stroke="black" stroke-width="2"/>
</svg>
