<svg width="778" height="767" viewBox="0 0 778 767" fill="none" xmlns="http://www.w3.org/2000/svg">
<path fill-rule="evenodd" clip-rule="evenodd" d="M572.112 252.939L350.911 380.65L478.622 601.851L699.822 474.14L775.954 479.05L648.244 257.85L572.112 252.94L572.112 252.939Z" fill="#FFCF48"/>
<path d="M350.911 380.65L350.411 379.784L349.545 380.284L350.045 381.15L350.911 380.65ZM572.112 252.939L572.978 252.439L572.478 251.573L571.612 252.073L572.112 252.939ZM478.622 601.851L477.756 602.351L478.256 603.217L479.122 602.717L478.622 601.851ZM699.822 474.14L699.887 473.143L699.585 473.123L699.322 473.274L699.822 474.14ZM775.954 479.05L775.89 480.048L777.755 480.169L776.821 478.55L775.954 479.05ZM648.244 257.85L649.11 257.35L648.843 256.886L648.308 256.852L648.244 257.85ZM572.112 252.94L571.246 253.44L571.514 253.903L572.048 253.938L572.112 252.94ZM351.411 381.516L572.612 253.806L571.612 252.073L350.411 379.784L351.411 381.516ZM479.488 601.351L351.777 380.15L350.045 381.15L477.756 602.351L479.488 601.351ZM699.322 473.274L478.122 600.985L479.122 602.717L700.322 475.007L699.322 473.274ZM776.019 478.053L699.887 473.143L699.758 475.138L775.89 480.048L776.019 478.053ZM647.378 258.35L775.088 479.55L776.821 478.55L649.11 257.35L647.378 258.35ZM572.048 253.938L648.18 258.848L648.308 256.852L572.177 251.942L572.048 253.938ZM571.246 253.439L571.246 253.44L572.978 252.44L572.978 252.439L571.246 253.439Z" fill="black"/>
<path d="M554.754 606.761L478.622 601.851L350.911 380.65L427.043 385.56L554.754 606.761Z" fill="#D69D00" stroke="black" stroke-width="2"/>
<rect x="427.043" y="385.56" width="255.421" height="255.421" transform="rotate(-30 427.043 385.56)" fill="#E5B632" stroke="black" stroke-width="2"/>
<path fill-rule="evenodd" clip-rule="evenodd" d="M444.402 31.7386L223.201 159.449L350.911 380.65L572.112 252.94L648.244 257.85L520.534 36.6488L444.402 31.7388L444.402 31.7386Z" fill="#FFCF48"/>
<path d="M223.201 159.449L222.701 158.583L221.835 159.083L222.335 159.949L223.201 159.449ZM444.402 31.7386L445.268 31.2386L444.768 30.3726L443.902 30.8726L444.402 31.7386ZM350.911 380.65L350.045 381.15L350.545 382.016L351.411 381.516L350.911 380.65ZM572.112 252.94L572.176 251.942L571.874 251.922L571.612 252.074L572.112 252.94ZM648.244 257.85L648.18 258.848L650.044 258.968L649.11 257.35L648.244 257.85ZM520.534 36.6488L521.4 36.1488L521.132 35.6853L520.598 35.6509L520.534 36.6488ZM444.402 31.7388L443.536 32.2388L443.803 32.7023L444.337 32.7367L444.402 31.7388ZM223.701 160.315L444.902 32.6047L443.902 30.8726L222.701 158.583L223.701 160.315ZM351.777 380.15L224.067 158.949L222.335 159.949L350.045 381.15L351.777 380.15ZM571.612 252.074L350.411 379.784L351.411 381.516L572.612 253.806L571.612 252.074ZM648.308 256.852L572.176 251.942L572.048 253.938L648.18 258.848L648.308 256.852ZM519.668 37.1488L647.378 258.35L649.11 257.35L521.4 36.1488L519.668 37.1488ZM444.337 32.7367L520.469 37.6467L520.598 35.6509L444.466 30.7409L444.337 32.7367ZM443.536 32.2386L443.536 32.2388L445.268 31.2388L445.268 31.2386L443.536 32.2386Z" fill="black"/>
<path d="M427.043 385.56L350.911 380.65L223.201 159.449L299.333 164.359L427.043 385.56Z" fill="#D69D00" stroke="black" stroke-width="2"/>
<rect x="299.333" y="164.359" width="255.421" height="255.421" transform="rotate(-30 299.333 164.359)" fill="#E5B632" stroke="black" stroke-width="2"/>
<path fill-rule="evenodd" clip-rule="evenodd" d="M350.911 380.65L129.71 508.36L257.421 729.561L478.621 601.851L554.754 606.761L427.043 385.56L350.911 380.65L350.911 380.65Z" fill="#FFCF48"/>
<path d="M129.71 508.36L129.21 507.494L128.344 507.994L128.844 508.86L129.71 508.36ZM350.911 380.65L351.777 380.15L351.277 379.284L350.411 379.784L350.911 380.65ZM257.421 729.561L256.555 730.061L257.055 730.927L257.921 730.427L257.421 729.561ZM478.621 601.851L478.686 600.853L478.384 600.833L478.121 600.985L478.621 601.851ZM554.754 606.761L554.689 607.759L556.554 607.879L555.62 606.261L554.754 606.761ZM427.043 385.56L427.909 385.06L427.642 384.597L427.107 384.562L427.043 385.56ZM350.911 380.65L350.045 381.15L350.313 381.614L350.847 381.648L350.911 380.65ZM130.21 509.226L351.411 381.516L350.411 379.784L129.21 507.494L130.21 509.226ZM258.287 729.061L130.576 507.86L128.844 508.86L256.555 730.061L258.287 729.061ZM478.121 600.985L256.921 728.695L257.921 730.427L479.121 602.717L478.121 600.985ZM554.818 605.763L478.686 600.853L478.557 602.849L554.689 607.759L554.818 605.763ZM426.177 386.06L553.887 607.261L555.62 606.261L427.909 385.06L426.177 386.06ZM350.847 381.648L426.979 386.558L427.107 384.562L350.976 379.652L350.847 381.648ZM350.045 381.15L350.045 381.15L351.777 380.15L351.777 380.15L350.045 381.15Z" fill="black"/>
<path d="M333.553 734.471L257.421 729.561L129.71 508.36L205.842 513.27L333.553 734.471Z" fill="#D69D00" stroke="black" stroke-width="2"/>
<rect x="205.842" y="513.27" width="255.421" height="255.421" transform="rotate(-30 205.842 513.27)" fill="#E5B632" stroke="black" stroke-width="2"/>
<path fill-rule="evenodd" clip-rule="evenodd" d="M223.201 159.449L2 287.159L129.71 508.36L350.911 380.65L427.043 385.56L299.333 164.359L223.201 159.449L223.201 159.449Z" fill="#FFCF48"/>
<path d="M2 287.159L1.5 286.293L0.633975 286.793L1.13397 287.659L2 287.159ZM223.201 159.449L224.067 158.949L223.567 158.083L222.701 158.583L223.201 159.449ZM129.71 508.36L128.844 508.86L129.344 509.726L130.21 509.226L129.71 508.36ZM350.911 380.65L350.975 379.652L350.673 379.633L350.411 379.784L350.911 380.65ZM427.043 385.56L426.979 386.558L428.843 386.678L427.909 385.06L427.043 385.56ZM299.333 164.359L300.199 163.859L299.931 163.396L299.397 163.361L299.333 164.359ZM223.201 159.449L222.335 159.949L222.603 160.413L223.137 160.447L223.201 159.449ZM2.5 288.025L223.701 160.315L222.701 158.583L1.5 286.293L2.5 288.025ZM130.576 507.86L2.86603 286.659L1.13397 287.659L128.844 508.86L130.576 507.86ZM350.411 379.784L129.21 507.494L130.21 509.226L351.411 381.516L350.411 379.784ZM427.108 384.562L350.975 379.652L350.847 381.648L426.979 386.558L427.108 384.562ZM298.467 164.859L426.177 386.06L427.909 385.06L300.199 163.859L298.467 164.859ZM223.137 160.447L299.268 165.357L299.397 163.361L223.265 158.451L223.137 160.447ZM222.335 159.949L222.335 159.949L224.067 158.949L224.067 158.949L222.335 159.949Z" fill="black"/>
<path d="M205.843 513.27L129.71 508.36L2 287.159L78.1321 292.069L205.843 513.27Z" fill="#D69D00" stroke="black" stroke-width="2"/>
<rect x="78.132" y="292.07" width="255.421" height="255.421" transform="rotate(-30 78.132 292.07)" fill="#E5B632" stroke="black" stroke-width="2"/>
</svg>
